<svg width="238" height="308" viewBox="0 0 238 308" fill="none" xmlns="http://www.w3.org/2000/svg">
<g style="mix-blend-mode:multiply">
<path d="M117.607 299.803C117.607 303.796 101.439 307.055 81.4932 307.055C61.5475 307.055 45.396 303.812 45.396 299.803C45.396 295.794 61.5556 292.559 81.4932 292.559C101.431 292.559 117.607 295.802 117.607 299.803Z" fill="#D8D9DD"/>
</g>
<g style="mix-blend-mode:multiply">
<path d="M208.136 266.61C208.136 270.938 172.385 274.437 128.297 274.437C84.2081 274.437 48.4653 270.938 48.4653 266.61C48.4653 262.281 84.2081 258.774 128.313 258.774C172.417 258.774 208.136 262.281 208.136 266.61Z" fill="#D8D9DD"/>
</g>
<path d="M237.772 117.407C237.772 140.628 230.827 163.327 217.815 182.635C204.804 201.942 186.309 216.99 164.671 225.877C143.033 234.763 119.223 237.088 96.2526 232.558C73.2818 228.028 52.1818 216.846 35.6208 200.426C19.0598 184.006 7.7816 163.087 3.21243 140.312C-1.35675 117.537 0.988324 93.9305 9.95108 72.4772C18.9138 51.0239 34.0917 32.6875 53.5654 19.7866C73.0391 6.88579 95.9339 0 119.355 0C150.761 0 180.881 12.3696 203.089 34.3877C225.296 56.4058 237.772 86.2687 237.772 117.407V117.407Z" fill="#F9F0F1"/>
<path d="M119.75 234.822C147.961 234.825 175.247 224.842 196.693 206.67C218.14 188.499 232.339 163.334 236.734 135.705V114.052H228.678V131.56H215.056V85.8269H204.222V117.511H193.612V126.36H182.995V136.28H167.947V80.9549H155.453V124.883H139.656V137.502H128.813V115.538H108.271V140.737H94.2945V103.198H86.2389V131.56H72.6329V97.32H61.782V117.511H51.1808V126.36H40.5716V136.28H25.5156V114.052H13.0213V130.362H2.05762C5.27148 159.081 19.0549 185.617 40.7697 204.891C62.4845 224.164 90.6055 234.821 119.75 234.822V234.822Z" fill="#EDD2D2"/>
<path d="M119.556 103.51C119.53 103.271 119.517 103.031 119.516 102.791C119.52 101.034 120.227 99.3495 121.482 98.1082C122.737 96.867 124.437 96.1699 126.21 96.1699C126.637 96.1687 127.063 96.2088 127.483 96.2897C127.483 96.0421 127.483 95.8025 127.483 95.5549C127.49 93.9824 127.938 92.4429 128.777 91.1084C129.616 89.7738 130.813 88.6968 132.233 87.9975C133.654 87.2982 135.243 87.0043 136.822 87.1484C138.401 87.2926 139.909 87.8693 141.177 88.814C141.329 86.0913 142.545 83.5345 144.567 81.6865C146.59 79.8385 149.259 78.8449 152.008 78.9166C154.757 78.9883 157.37 80.1198 159.292 82.0707C161.213 84.0216 162.292 86.6383 162.299 89.3651C162.299 89.5408 162.299 89.7085 162.299 89.8763C163.652 89.0133 165.243 88.5889 166.85 88.6617C168.457 88.7346 170.002 89.3012 171.27 90.283C172.538 91.2648 173.467 92.6133 173.928 94.1417C174.389 95.6701 174.359 97.3027 173.843 98.8136C174.61 98.601 175.415 98.5576 176.2 98.6865C176.986 98.8153 177.734 99.1133 178.391 99.5594C179.049 100.005 179.599 100.589 180.005 101.269C180.41 101.948 180.661 102.708 180.738 103.494L119.556 103.51Z" fill="white"/>
<path d="M91.8123 52.913C91.7732 52.5496 91.7544 52.1843 91.7559 51.8188C91.7559 49.1117 92.8406 46.5155 94.7713 44.6013C96.702 42.687 99.3206 41.6116 102.051 41.6116C102.708 41.6145 103.364 41.6787 104.009 41.8033C104.009 41.4359 103.952 41.0526 103.952 40.6772C103.951 38.2468 104.635 35.8646 105.927 33.7991C107.219 31.7337 109.067 30.0672 111.264 28.9876C113.46 27.9081 115.916 27.4584 118.357 27.6892C120.797 27.9201 123.123 28.8224 125.074 30.2943C125.259 26.071 127.111 22.089 130.229 19.2063C133.348 16.3237 137.484 14.7711 141.746 14.8832C146.008 14.9953 150.055 16.763 153.015 19.8056C155.975 22.8481 157.611 26.9218 157.57 31.1489C157.57 31.4124 157.57 31.676 157.57 31.9475C159.655 30.6215 162.105 29.9708 164.579 30.0856C167.053 30.2004 169.431 31.0749 171.382 32.5882C173.333 34.1015 174.761 36.1787 175.469 38.5322C176.177 40.8857 176.129 43.3993 175.333 45.7249C176.512 45.3956 177.75 45.3267 178.959 45.5233C180.168 45.7198 181.319 46.1768 182.331 46.8622C183.343 47.5476 184.19 48.4447 184.814 49.4901C185.438 50.5356 185.823 51.704 185.942 52.913H91.8123Z" fill="white"/>
<path d="M27.2954 84.4373C27.2954 84.2376 27.2954 84.0379 27.2954 83.8382C27.2954 82.342 27.8943 80.907 28.9607 79.8482C30.027 78.7895 31.4736 78.1937 32.9827 78.1915C33.3476 78.1937 33.7116 78.2284 34.0702 78.2954C34.0577 78.0879 34.0577 77.8799 34.0702 77.6724C34.0702 75.766 34.834 73.9376 36.1937 72.5896C37.5533 71.2416 39.3974 70.4842 41.3203 70.4842C42.9109 70.4805 44.4579 71.0002 45.7186 71.9618C45.8142 69.6235 46.8342 67.4165 48.5582 65.818C50.2821 64.2196 52.5714 63.3581 54.931 63.4201C57.2905 63.482 59.5306 64.4623 61.1669 66.1489C62.8031 67.8356 63.704 70.093 63.6746 72.433C63.6746 72.5768 63.6746 72.7206 63.6746 72.8643C64.6702 72.2264 65.8209 71.8665 67.0055 71.8227C68.1901 71.7789 69.3647 72.0526 70.4054 72.6152C71.4462 73.1778 72.3147 74.0083 72.9193 75.0192C73.5239 76.0301 73.8422 77.184 73.8408 78.3593C73.8202 79.071 73.6842 79.7749 73.438 80.4438C73.8425 80.3348 74.2595 80.2785 74.6786 80.2761C75.83 80.2747 76.9407 80.6984 77.7941 81.4648C78.6474 82.2311 79.1823 83.2851 79.2945 84.4213L27.2954 84.4373Z" fill="white"/>
<path d="M119.475 234.822C137.951 234.838 156.173 230.561 172.68 222.334C189.188 214.108 203.521 202.161 214.532 187.452H200.144C201.777 186.346 202.91 184.653 203.302 182.732H203.818C203.744 183.122 203.642 183.506 203.512 183.882H217.093C222.839 175.607 227.485 166.633 230.917 157.182C229.171 156.478 227.299 156.133 225.415 156.167H206.081C203.318 156.167 184.742 163.515 184.581 163.563C183.961 163.771 181.995 164.266 181.359 165.616C181.318 165.689 181.286 165.767 181.262 165.847C181.259 165.874 181.259 165.901 181.262 165.927C181.236 166.002 181.217 166.08 181.206 166.159V166.263C181.206 166.366 181.206 166.478 181.206 166.598L181.101 168.06L180.98 169.793L180.787 172.5C180.283 172.494 179.789 172.638 179.368 172.912C178.948 173.187 178.62 173.581 178.426 174.042C178.241 174.545 177.814 177.732 177.661 179.106C177.661 179.361 177.766 179.401 177.967 179.633H177.363V181.23H178.459C178.463 181.035 178.45 180.84 178.418 180.647C178.491 181.07 178.418 181.342 178.58 181.613C178.982 182.188 179.997 182.26 180.996 182.452C183.413 182.947 187.884 183.89 188.117 183.89H188.295C188.147 183.457 188.034 183.014 187.956 182.564H188.52C188.703 183.549 189.082 184.488 189.635 185.326C190.189 186.164 190.905 186.884 191.742 187.444H135.651C137.134 186.441 138.21 184.95 138.688 183.235H139.268C139.204 183.458 139.147 183.674 139.075 183.89H154.284C155.089 183.89 155.621 183.642 155.621 182.7V177.308C155.623 177.11 155.582 176.914 155.5 176.733C155.418 176.553 155.297 176.392 155.146 176.262C154.767 175.943 154.284 175.559 154.276 175.551C153.792 173.778 149.201 170.759 146.518 170.272L134 166.734C134 166.734 129.819 164.561 124.583 161.207C121.038 158.931 118.468 156.167 112.572 156.167H93.2383C90.4752 156.167 71.8909 163.515 71.7378 163.563C71.1095 163.771 69.1439 164.266 68.4753 165.616C68.4382 165.691 68.4059 165.768 68.3786 165.847V165.927C68.3786 166.007 68.3786 166.079 68.3222 166.159C68.3184 166.193 68.3184 166.228 68.3222 166.263C68.3136 166.374 68.3136 166.486 68.3222 166.598L68.2094 168.06L68.0886 169.793L67.8953 172.5C67.3918 172.495 66.8982 172.639 66.4777 172.914C66.0572 173.188 65.729 173.581 65.535 174.042C65.3497 174.545 64.9227 177.732 64.7294 179.106C64.7294 179.361 64.8422 179.401 65.0355 179.633H64.4314V181.23H65.5269C65.5412 181.036 65.5412 180.841 65.5269 180.647C65.5913 181.07 65.5269 181.35 65.68 181.613C66.0827 182.188 67.1058 182.26 68.0967 182.452C70.5133 182.947 74.9842 183.89 75.2259 183.89H75.4031C75.2481 183.459 75.1348 183.015 75.0648 182.564H75.6206C75.8052 183.548 76.1851 184.486 76.7382 185.324C77.2913 186.162 78.0067 186.882 78.8429 187.444H26.8438C28.3308 186.44 29.41 184.946 29.8888 183.227H30.4688C30.4124 183.45 30.348 183.666 30.2755 183.882H45.4845C46.2901 183.882 46.8217 183.634 46.8217 182.692V177.301C46.8255 177.102 46.7848 176.905 46.7026 176.724C46.6204 176.544 46.4988 176.383 46.3465 176.254L45.4845 175.543C44.9931 173.77 40.4095 170.751 37.7189 170.264L25.2005 166.726C25.2005 166.726 21.0196 164.553 15.7834 161.199C13.1815 159.53 11.1112 157.605 7.86475 156.694C16.0557 179.549 31.1819 199.328 51.1661 213.317C71.1503 227.306 95.0123 234.818 119.475 234.822V234.822ZM178.225 180.28C178.156 180.102 178.069 179.93 177.967 179.768C178.077 179.933 178.166 180.11 178.233 180.296C178.231 180.333 178.231 180.37 178.233 180.407C178.228 180.365 178.226 180.322 178.225 180.28V180.28ZM65.3819 180.28C65.3136 180.1 65.2243 179.928 65.1161 179.768C65.2256 179.933 65.3149 180.11 65.3819 180.296C65.3796 180.33 65.3796 180.365 65.3819 180.399C65.3763 180.36 65.3763 180.319 65.3819 180.28V180.28ZM90.4591 182.676H90.9746C90.8973 183.065 90.795 183.449 90.6685 183.826H123.697C123.608 183.562 123.535 183.291 123.463 183.027H123.979C124.435 184.808 125.529 186.363 127.056 187.404H87.3093C88.9291 186.307 90.0602 184.634 90.4671 182.732L90.4591 182.676Z" fill="#E3B6B9"/>
<path d="M183.816 118.693V99.141H181.472V69.7094H75.1133V267.137H181.472V133.588H183.816V123.812H181.472V118.693H183.816Z" fill="#302169"/>
<path d="M177.532 84.2375H79.0444V249.118H177.532V84.2375Z" fill="#96C5CE"/>
<path d="M133.46 257.52C133.46 258.535 133.157 259.526 132.589 260.369C132.02 261.212 131.213 261.87 130.268 262.258C129.323 262.646 128.283 262.747 127.279 262.55C126.276 262.352 125.355 261.863 124.631 261.146C123.908 260.429 123.416 259.516 123.216 258.521C123.017 257.526 123.119 256.495 123.51 255.558C123.902 254.621 124.565 253.821 125.415 253.257C126.266 252.694 127.266 252.393 128.288 252.393C128.968 252.392 129.641 252.524 130.269 252.781C130.897 253.038 131.467 253.416 131.948 253.892C132.428 254.369 132.809 254.934 133.069 255.557C133.328 256.18 133.461 256.847 133.46 257.52V257.52Z" fill="white"/>
<path d="M138.97 78.0476C138.971 78.2461 138.932 78.4429 138.856 78.6265C138.78 78.8101 138.668 78.977 138.526 79.1173C138.385 79.2577 138.217 79.3689 138.031 79.4444C137.846 79.5198 137.648 79.5582 137.447 79.5571H119.137C118.936 79.5582 118.738 79.5199 118.552 79.4445C118.366 79.3691 118.197 79.2581 118.055 79.1178C117.913 78.9776 117.8 78.8108 117.723 78.6271C117.646 78.4435 117.606 78.2465 117.606 78.0476V78.0476C117.606 77.6452 117.768 77.2592 118.055 76.9746C118.342 76.69 118.731 76.5302 119.137 76.5302H137.447C137.648 76.5301 137.847 76.5695 138.032 76.6458C138.217 76.7222 138.385 76.8341 138.527 76.9751C138.668 77.1161 138.78 77.2835 138.856 77.4675C138.932 77.6516 138.971 77.8487 138.97 78.0476V78.0476Z" fill="white"/>
<path d="M145.197 78.0477C145.199 78.4638 145.076 78.871 144.844 79.2176C144.611 79.5643 144.281 79.8347 143.893 79.9947C143.506 80.1547 143.079 80.1969 142.667 80.1162C142.256 80.0354 141.877 79.8351 141.58 79.5409C141.284 79.2467 141.082 78.8717 141 78.4635C140.919 78.0553 140.961 77.6323 141.123 77.2481C141.284 76.864 141.557 76.536 141.907 76.3058C142.256 76.0756 142.667 75.9536 143.087 75.9552C143.646 75.9573 144.181 76.1784 144.577 76.5704C144.972 76.9623 145.195 77.4933 145.197 78.0477V78.0477Z" fill="white"/>
<path d="M153.921 93.4464H105.008C101.7 93.4485 98.5279 94.7529 96.1895 97.0728C93.8511 99.3927 92.5376 102.538 92.5376 105.818V121.472C92.5376 124.751 93.8514 127.896 96.19 130.215C98.5286 132.533 101.7 133.836 105.008 133.836H135.539C137.512 139.115 137.101 143.875 135.812 146.008C134.419 148.308 137.029 147.917 137.577 147.669C144.827 144.363 149.829 137.286 151.384 133.836H153.921C157.229 133.836 160.401 132.533 162.739 130.215C165.078 127.896 166.392 124.751 166.392 121.472V105.818C166.392 102.538 165.078 99.3927 162.74 97.0728C160.401 94.7529 157.23 93.4485 153.921 93.4464V93.4464Z" fill="white"/>
<path d="M103.609 115.029H105.103C105.722 115.029 106.031 114.938 106.031 114.756V114.697C106.031 113.961 105.604 112.483 104.752 110.263C104.589 109.84 104.478 109.629 104.42 109.629C104.394 109.629 104.283 109.853 104.088 110.302C103.085 112.64 102.584 114.131 102.584 114.775C102.584 114.944 102.925 115.029 103.609 115.029ZM110.172 120.049C110.172 120.394 109.853 120.566 109.215 120.566C108.576 120.566 108.114 120.368 107.828 119.97C107.652 119.723 107.447 119.251 107.213 118.554C106.985 117.851 106.812 117.431 106.695 117.295C106.5 117.073 105.998 116.963 105.191 116.963C103.55 116.963 102.509 117.077 102.066 117.304C101.825 117.428 101.568 117.874 101.295 118.642C101.021 119.411 100.819 119.876 100.689 120.039C100.442 120.345 100.022 120.498 99.4294 120.498C98.8434 120.498 98.5505 120.361 98.5505 120.088C98.5505 119.814 99.1429 117.9 100.328 114.345C101.513 110.791 102.131 108.958 102.183 108.847C102.685 107.819 103.036 107.216 103.238 107.041C103.446 106.865 103.837 106.777 104.41 106.777C104.983 106.784 105.364 106.858 105.552 107.002C106.015 107.36 106.688 108.841 107.574 111.445C108.466 114.049 108.987 115.664 109.136 116.289C109.286 116.907 109.494 117.659 109.761 118.545C110.035 119.43 110.172 119.931 110.172 120.049ZM114.224 121.347H114.009C113.306 121.347 112.678 121.188 112.125 120.869C111.578 120.556 111.304 120.156 111.304 119.668V119.482C111.304 119.163 111.461 118.886 111.773 118.652C111.91 118.548 112.151 118.496 112.496 118.496L113.697 118.759C114.055 118.759 114.387 118.626 114.693 118.359C115.006 118.086 115.253 117.708 115.435 117.226C115.819 116.224 116.011 114.642 116.011 112.48C116.011 111.478 115.924 110.521 115.748 109.609C115.578 108.698 115.494 108.105 115.494 107.832C115.494 107.552 115.618 107.311 115.865 107.109C116.119 106.907 116.522 106.806 117.076 106.806C117.636 106.806 117.997 106.946 118.16 107.226C118.446 107.728 118.59 108.32 118.59 109.004V109.218L118.463 111.308V112.851L118.472 113.515C118.472 115.618 118.414 117.002 118.297 117.666C118.017 119.209 117.333 120.27 116.246 120.849C115.634 121.181 114.96 121.347 114.224 121.347ZM124.068 115.049C124.068 116.292 124.296 117.216 124.752 117.822C125.207 118.427 125.927 118.73 126.91 118.73C127.893 118.73 128.606 118.333 129.049 117.539C129.407 116.901 129.586 115.674 129.586 113.857L129.605 113.164L129.634 110.752C129.634 108.909 129.68 107.825 129.771 107.5C129.901 107.031 130.282 106.797 130.914 106.797C131.552 106.797 131.9 106.924 131.959 107.177C131.972 107.236 131.978 108.138 131.978 109.883L131.998 111.582C131.998 111.81 132.001 112.034 132.007 112.256L132.037 113.261V114.277C132.037 115.612 131.975 116.611 131.851 117.275C131.584 118.681 130.767 119.671 129.4 120.244C128.528 120.608 127.642 120.791 126.744 120.791H126.373C124.563 120.791 123.228 120.169 122.369 118.925C122.03 118.437 121.809 117.9 121.705 117.314C121.607 116.722 121.558 115.54 121.558 113.769C121.558 111.992 121.532 110.53 121.48 109.384L121.441 108.769C121.409 108.255 121.392 107.946 121.392 107.841V107.529C121.392 107.151 121.636 106.963 122.125 106.963C122.613 106.963 122.974 107.015 123.209 107.119C123.45 107.223 123.616 107.487 123.707 107.91C123.928 108.925 124.039 110.732 124.039 113.33L124.058 114.013C124.065 114.241 124.068 114.586 124.068 115.049ZM142.945 113.965V113.496C142.945 111.829 142.639 110.625 142.027 109.883C141.422 109.134 140.491 108.759 139.234 108.759H138.511C137.965 108.759 137.619 108.805 137.476 108.896C137.333 108.981 137.261 109.235 137.261 109.658L137.242 109.922C137.229 110.097 137.222 110.28 137.222 110.468V113.886C137.222 116.543 137.252 117.981 137.31 118.203C137.388 118.509 137.86 118.662 138.726 118.662L138.863 118.652C139.664 118.646 140.305 118.558 140.787 118.388C141.731 118.05 142.346 117.334 142.632 116.24C142.841 115.439 142.945 114.681 142.945 113.965ZM145.513 113.388V113.877C145.513 116.233 144.983 117.959 143.922 119.052C142.86 120.146 141.168 120.693 138.843 120.693H137.486C135.858 120.693 134.979 120.576 134.849 120.341C134.765 120.185 134.722 118.766 134.722 116.084V109.502L134.713 109.277V108.838L134.703 107.959V107.734C134.703 107.246 134.869 106.946 135.201 106.836C135.422 106.764 136.22 106.728 137.593 106.728H139.195C142.34 106.728 144.293 107.91 145.054 110.273C145.36 111.211 145.513 112.249 145.513 113.388ZM152.086 115.029H153.58C154.198 115.029 154.507 114.938 154.507 114.756V114.697C154.507 113.961 154.081 112.483 153.228 110.263C153.065 109.84 152.955 109.629 152.896 109.629C152.87 109.629 152.759 109.853 152.564 110.302C151.562 112.64 151.06 114.131 151.06 114.775C151.06 114.944 151.402 115.029 152.086 115.029ZM158.648 120.049C158.648 120.394 158.329 120.566 157.691 120.566C157.053 120.566 156.591 120.368 156.304 119.97C156.129 119.723 155.924 119.251 155.689 118.554C155.461 117.851 155.289 117.431 155.172 117.295C154.976 117.073 154.475 116.963 153.668 116.963C152.027 116.963 150.985 117.077 150.543 117.304C150.302 117.428 150.045 117.874 149.771 118.642C149.498 119.411 149.296 119.876 149.166 120.039C148.918 120.345 148.498 120.498 147.906 120.498C147.32 120.498 147.027 120.361 147.027 120.088C147.027 119.814 147.619 117.9 148.804 114.345C149.989 110.791 150.608 108.958 150.66 108.847C151.161 107.819 151.513 107.216 151.715 107.041C151.923 106.865 152.313 106.777 152.886 106.777C153.459 106.784 153.84 106.858 154.029 107.002C154.491 107.36 155.165 108.841 156.05 111.445C156.942 114.049 157.463 115.664 157.613 116.289C157.763 116.907 157.971 117.659 158.238 118.545C158.511 119.43 158.648 119.931 158.648 120.049Z" fill="black"/>
<path d="M128.092 228.569C113.36 218.006 81.9392 201.114 86.8403 178.412C91.2667 158.351 121.709 155.7 128.092 176.827C134.475 155.7 164.898 158.351 169.325 178.412C174.235 201.114 142.815 218.006 128.092 228.569Z" fill="#E3B6B9"/>
<path d="M92.6229 188.178C90.6858 182.061 94.5601 167.8 105.108 168.866C108.566 169.212 110.241 173.149 107.558 174.705C99.3546 179.449 97.3884 185.797 99.742 189.811C101.912 193.518 95.7418 198.002 92.6229 188.178Z" fill="white"/>
<path d="M84.0472 177.66H73.4863C71.0696 177.66 68.8543 179.177 68.8543 182.508C68.8543 185.375 70.3607 194.009 70.0143 202.211C69.6616 208.213 68.7829 214.172 67.3882 220.022H90.1453C88.7189 214.289 87.8396 208.435 87.5192 202.539C87.1728 194.416 88.6792 182.508 88.6792 182.508C88.6792 179.177 86.4478 177.66 84.0472 177.66Z" fill="#C75984"/>
<path d="M81.4932 177.66C80.5838 177.897 79.6461 178.01 78.706 177.995C77.8065 177.994 76.9108 177.882 76.0396 177.66V174.13H81.4932V177.66Z" fill="#D996A0"/>
<path d="M87.0762 165.4C86.9907 165.388 86.9039 165.388 86.8184 165.4C86.8184 164.202 86.8667 162.445 86.8667 162.445C86.8667 160.327 86.018 158.295 84.5073 156.797C82.9966 155.299 80.9476 154.458 78.8111 154.458C76.6746 154.458 74.6256 155.299 73.1149 156.797C71.6042 158.295 70.7555 160.327 70.7555 162.445C70.7555 162.445 70.7555 164.202 70.7958 165.408C70.6947 165.389 70.5907 165.389 70.4896 165.408C69.9016 165.56 69.6035 166.342 69.813 167.157C70.0224 167.972 70.6749 168.507 71.263 168.355L71.3919 168.299C72.3908 171.023 74.7108 174.96 78.8272 174.96C82.7825 174.96 85.3201 171.23 86.3431 168.355C86.9312 168.499 87.5676 167.964 87.7851 167.157C87.9208 166.83 87.9226 166.464 87.7903 166.136C87.6579 165.808 87.4017 165.544 87.0762 165.4V165.4Z" fill="#E0ACB1"/>
<path d="M90.1452 220.022H67.1303C66.7338 222.397 66.5746 224.805 66.655 227.21C66.655 233.368 69.3053 233.416 69.3053 251.49L70.9164 296.057H78.2712L78.521 232.458H78.7385L79.0526 296.057H86.198L87.9944 251.49C87.9944 233.416 90.6447 233.368 90.6447 227.21C90.7171 224.804 90.5498 222.396 90.1452 220.022Z" fill="#F3DBA0"/>
<path d="M113.611 133.956H111.621C110.373 133.956 111.565 128.213 109.97 128.213C109.011 128.213 108.955 132.51 108.753 135.553C108.616 137.638 108.753 140.186 109.712 141.575C109.127 145.29 108.194 148.942 106.925 152.485C105.598 156.14 103.878 159.643 101.793 162.932C99.7113 166.196 97.2629 169.216 94.4949 171.933C93.1256 173.284 91.6727 174.548 90.1449 175.719C89.3877 176.294 88.6063 176.853 87.8168 177.372C87.4221 177.636 87.0113 177.884 86.6246 178.123L86.0365 178.467L85.5049 178.754L85.384 178.81C85.0418 178.994 84.7395 179.243 84.4944 179.543C84.2493 179.843 84.0661 180.188 83.9554 180.558C83.8447 180.928 83.8086 181.316 83.8491 181.7C83.8897 182.084 84.0061 182.456 84.1918 182.795C84.3775 183.135 84.6287 183.435 84.9312 183.678C85.2337 183.921 85.5815 184.102 85.9548 184.212C86.328 184.322 86.7194 184.357 87.1067 184.317C87.4939 184.277 87.8693 184.162 88.2116 183.978C88.5338 183.81 88.7593 183.674 89.0171 183.522L89.7341 183.075C90.2013 182.772 90.6605 182.46 91.1035 182.141C92.0057 181.518 92.8758 180.855 93.7055 180.168C95.3703 178.803 96.9519 177.341 98.4422 175.791C101.401 172.697 103.993 169.278 106.168 165.6C108.329 161.941 110.085 158.061 111.404 154.027C112.699 150.02 113.597 145.898 114.086 141.719V141.671C115.013 140.641 115.278 138.828 115.697 136.472C115.769 136.165 115.769 135.846 115.697 135.539C115.624 135.233 115.482 134.947 115.28 134.704C115.078 134.46 114.823 134.266 114.533 134.137C114.244 134.007 113.928 133.945 113.611 133.956V133.956Z" fill="#E0ACB1"/>
<path d="M91.16 173.091L84.8363 177.971C84.0745 178.606 83.5905 179.508 83.4861 180.489C83.3817 181.47 83.665 182.452 84.2764 183.23C84.8879 184.008 85.7799 184.521 86.7647 184.66C87.7495 184.8 88.7504 184.555 89.5569 183.977L95.8886 179.089L91.16 173.091Z" fill="#C75984"/>
<path d="M69.4983 178.682L69.1358 178.906L68.8781 179.089C68.7169 179.209 68.5639 179.321 68.4269 179.441C68.145 179.672 67.8792 179.904 67.6214 180.136C67.13 180.607 66.6869 181.086 66.268 181.573C65.467 182.52 64.7373 183.524 64.085 184.576C62.8386 186.59 61.7764 188.709 60.911 190.91C59.2801 195.164 58.0793 199.567 57.3263 204.056C56.57 208.46 56.067 212.902 55.8199 217.362C55.5621 221.795 55.5057 218.377 55.5943 222.794C55.59 222.871 55.59 222.948 55.5943 223.025C54.4666 225.709 54.7082 230.365 56.9235 233.608C60.8224 239.326 60.8869 233.959 60.1458 232.673C59.3291 231.294 58.8903 229.728 58.873 228.129C58.873 227.554 59.5094 227.33 59.7349 227.769C60.6774 229.511 61.9341 230.165 60.4035 224.974C60.1619 224.127 60.0008 223.377 59.8155 222.682C59.9041 218.401 60.1296 221.963 60.5485 217.73C60.9511 213.466 61.602 209.228 62.498 205.039C63.3551 200.931 64.6206 196.918 66.2761 193.058C67.081 191.216 68.0516 189.449 69.1761 187.779C69.7057 186.993 70.2954 186.248 70.9403 185.551C71.2381 185.226 71.5527 184.917 71.8828 184.624C72.0295 184.494 72.1827 184.372 72.342 184.257C72.404 184.202 72.4715 184.154 72.5434 184.113L72.6239 184.057C73.3503 183.643 73.8811 182.96 74.0994 182.158C74.3177 181.356 74.2056 180.501 73.788 179.78C73.3703 179.06 72.6811 178.534 71.8721 178.317C71.0631 178.101 70.2006 178.212 69.4742 178.626L69.4983 178.682Z" fill="#E0ACB1"/>
<path d="M68.6045 190.263L73.7923 184.201C74.4178 183.426 74.7137 182.44 74.617 181.452C74.5203 180.465 74.0386 179.553 73.2745 178.912C72.5103 178.271 71.5241 177.951 70.5255 178.02C69.527 178.089 68.595 178.541 67.9278 179.281L62.748 185.335L68.6045 190.263Z" fill="#C75984"/>
<path d="M91.5064 182.037C94.2292 180.655 92.0059 178.626 90.0242 175.048C88.0425 171.47 86.8584 164.482 86.8584 164.482V160.808C86.8584 156.966 83.2333 153.851 78.8027 153.851C74.3721 153.851 70.7471 156.966 70.7471 160.808V164.482C70.7471 164.482 69.5549 171.47 67.5812 175.048C65.6076 178.626 63.3682 180.639 66.091 182.037C68.8138 183.434 69.0232 185.399 66.961 187.044C64.3107 189.153 64.504 193.027 67.7665 194.816C69.9093 195.982 68.0968 200.774 71.7943 200.774C76.8049 200.774 76.4344 197.899 78.7947 197.899C81.155 197.899 80.7925 200.774 85.8031 200.774C89.5167 200.774 87.6961 195.982 89.8309 194.816C90.5482 194.481 91.1661 193.968 91.6246 193.327C92.083 192.685 92.3666 191.938 92.4476 191.156C92.5287 190.374 92.4045 189.584 92.0872 188.864C91.7698 188.144 91.2701 187.517 90.6365 187.044C88.5903 185.399 88.7917 183.418 91.5064 182.037Z" fill="#302169"/>
<path d="M72.6885 296.049H78.0938V299.803H65.0679L72.6885 296.049Z" fill="#C75984"/>
<path d="M85.0618 296.049H79.6646V299.803H92.6824L85.0618 296.049Z" fill="#C75984"/>
</svg>
