<svg width="277" height="308" viewBox="0 0 277 308" fill="none" xmlns="http://www.w3.org/2000/svg">
<path d="M276.607 136.919C276.609 163.99 268.514 190.453 253.346 212.963C238.178 235.473 216.619 253.017 191.394 263.378C166.168 273.739 138.411 276.451 111.632 271.171C84.8519 265.891 60.253 252.856 40.9455 233.714C21.638 214.573 8.4891 190.185 3.16165 163.634C-2.1658 137.084 0.567472 109.563 11.0158 84.5526C21.4641 59.5422 39.1583 38.1653 61.8605 23.1253C84.5628 8.08532 111.254 0.0577397 138.558 0.0577396C156.686 0.0564705 174.637 3.59555 191.386 10.4729C208.135 17.3503 223.353 27.4312 236.173 40.14C248.992 52.8489 259.161 67.9368 266.098 84.5422C273.036 101.148 276.607 118.945 276.607 136.919V136.919Z" fill="#F9F0F1"/>
<path d="M138.968 273.78C171.852 273.781 203.657 262.144 228.657 240.964C253.658 219.784 270.212 190.452 275.341 158.247V132.986H265.993V153.386H250.076V100.128H237.405V137.064H225.084V147.385H212.705V158.982H195.16V94.4265H180.608V145.646H162.176V160.354H149.505V134.725H125.595V164.113H109.297V120.423H99.9402V153.435H84.0328V113.493H71.4394V137.035H59.041V147.356H46.6718V158.953H29.1269V132.986H14.5062V152.024H1.7666C5.52023 185.5 21.591 216.428 46.9042 238.892C72.2175 261.355 104.996 273.777 138.968 273.78Z" fill="#EDD2D2"/>
<path d="M138.752 120.712C138.738 120.436 138.738 120.158 138.752 119.881C138.752 117.831 139.574 115.864 141.036 114.415C142.499 112.965 144.482 112.15 146.55 112.15C147.051 112.149 147.55 112.198 148.041 112.295C148.027 112.012 148.027 111.728 148.041 111.445C148.04 109.604 148.557 107.799 149.535 106.235C150.513 104.67 151.913 103.407 153.576 102.589C155.24 101.771 157.1 101.43 158.949 101.605C160.797 101.78 162.559 102.463 164.036 103.578C164.153 100.361 165.546 97.3186 167.913 95.114C170.28 92.9094 173.429 91.7205 176.675 91.8059C179.922 91.8912 183.003 93.2439 185.249 95.5697C187.494 97.8955 188.723 101.006 188.668 104.226C188.668 104.429 188.668 104.622 188.668 104.825C190.118 103.888 191.81 103.388 193.541 103.385C194.977 103.392 196.39 103.739 197.665 104.395C198.939 105.051 200.037 105.999 200.868 107.159C201.7 108.32 202.241 109.66 202.446 111.069C202.652 112.478 202.516 113.915 202.05 115.262C202.609 115.106 203.186 115.028 203.766 115.03C205.344 115.03 206.865 115.611 208.034 116.661C209.204 117.712 209.937 119.156 210.092 120.712H138.752Z" fill="white"/>
<path d="M106.402 61.7236C106.402 61.3177 106.333 60.8828 106.333 60.4576C106.336 57.3016 107.602 54.2757 109.854 52.045C112.106 49.8143 115.159 48.5612 118.342 48.5612C119.108 48.5615 119.872 48.6359 120.623 48.7835C120.623 48.3486 120.564 47.9041 120.564 47.4692C120.567 44.6387 121.366 41.865 122.872 39.4604C124.378 37.0559 126.532 35.1162 129.09 33.8596C131.648 32.603 134.509 32.0794 137.351 32.348C140.193 32.6165 142.903 33.6665 145.176 35.3796C145.449 30.4985 147.629 25.915 151.254 22.6013C154.879 19.2876 159.664 17.5045 164.593 17.6302C169.522 17.756 174.207 19.7806 177.656 23.2747C181.104 26.7689 183.044 31.4575 183.063 36.346C183.063 36.6455 183.063 36.9548 183.063 37.2544C185.492 35.6985 188.35 34.9321 191.239 35.0617C194.128 35.1912 196.905 36.2104 199.182 37.9773C201.46 39.7443 203.125 42.1711 203.947 44.9202C204.768 47.6694 204.705 50.604 203.766 53.3159C204.625 53.071 205.514 52.9474 206.408 52.9487C208.84 52.9378 211.189 53.829 212.992 55.4472C214.796 57.0655 215.924 59.2938 216.155 61.6946L106.402 61.7236Z" fill="white"/>
<path d="M31.1924 98.4659C31.1924 98.234 31.1924 98.0021 31.1924 97.7701C31.1924 96.0247 31.8917 94.3508 33.1366 93.1166C34.3814 91.8824 36.0697 91.189 37.8302 91.189C38.2556 91.1916 38.6798 91.2337 39.0973 91.3146C39.0828 91.0732 39.0828 90.8312 39.0973 90.5898C39.0898 89.0169 39.528 87.4736 40.3619 86.1355C41.1959 84.7975 42.3921 83.7185 43.8143 83.0216C45.2365 82.3246 46.8275 82.0376 48.4061 82.1934C49.9848 82.3491 51.4876 82.9412 52.7434 83.9024C52.9081 81.2126 54.1206 78.6915 56.1248 76.8713C58.129 75.0511 60.7682 74.0743 63.4852 74.147C66.2021 74.2198 68.7843 75.3364 70.6865 77.2611C72.5888 79.1859 73.6622 81.7682 73.6803 84.4629C73.6803 84.6272 73.6803 84.7914 73.6803 84.9654C74.8409 84.2235 76.1816 83.8056 77.5615 83.7555C78.9414 83.7055 80.3094 84.0252 81.5215 84.6809C82.7336 85.3367 83.745 86.3043 84.4492 87.4819C85.1534 88.6595 85.5244 90.0036 85.5231 91.3726C85.5275 92.211 85.3891 93.0442 85.1138 93.8369C85.5889 93.7006 86.0812 93.6323 86.5758 93.634C87.9169 93.6327 89.2103 94.127 90.2034 95.0205C91.1965 95.914 91.818 97.1425 91.9465 98.4659H31.1924Z" fill="white"/>
<path d="M138.694 273.78C160.229 273.798 181.469 268.812 200.71 259.222C219.951 249.633 236.658 235.707 249.49 218.56H232.725C234.634 217.279 235.958 215.303 236.41 213.061H237.014C236.928 213.517 236.811 213.965 236.663 214.405H252.444C259.144 204.762 264.562 194.303 268.566 183.287C266.527 182.465 264.342 182.06 262.142 182.098H239.616C236.39 182.098 214.732 190.651 214.556 190.709C213.825 190.95 211.525 191.52 210.755 193.105C210.71 193.193 210.671 193.283 210.638 193.376C210.634 193.405 210.634 193.434 210.638 193.463C210.603 193.554 210.577 193.647 210.56 193.743C210.555 193.778 210.555 193.814 210.56 193.849C210.545 193.981 210.545 194.114 210.56 194.246L210.433 195.946L210.287 197.976L210.063 201.136C209.474 201.125 208.896 201.291 208.404 201.612C207.911 201.933 207.528 202.393 207.305 202.934C207.09 203.523 206.603 207.224 206.408 208.838C206.408 209.138 206.544 209.186 206.778 209.447H206.067V211.283H207.344C207.356 211.058 207.356 210.832 207.344 210.607C207.431 211.1 207.344 211.419 207.529 211.728C207.997 212.404 209.186 212.482 210.297 212.694C213.124 213.274 218.338 214.366 218.611 214.366H218.816C218.642 213.866 218.511 213.352 218.426 212.829H219.069C219.28 213.974 219.718 215.065 220.357 216.04C220.996 217.016 221.824 217.856 222.793 218.512H157.506C159.242 217.348 160.501 215.607 161.054 213.603H161.736C161.672 213.86 161.594 214.112 161.503 214.356H179.242C180.217 214.356 180.792 214.076 180.792 212.984V206.702C180.799 206.471 180.753 206.24 180.659 206.028C180.564 205.816 180.423 205.627 180.246 205.475L179.272 204.644C178.706 202.576 173.365 199.068 170.217 198.478L155.596 194.371C155.596 194.371 150.722 191.839 144.611 187.916C140.478 185.268 137.495 182.05 130.604 182.05H108.078C104.852 182.05 83.1938 190.602 83.0086 190.66C82.2775 190.902 79.9869 191.472 79.2169 193.057C79.168 193.143 79.1288 193.233 79.0999 193.328V193.415C79.0999 193.511 79.0512 193.598 79.0317 193.695C79.0122 193.791 79.0317 193.762 79.0317 193.801C79.0213 193.933 79.0213 194.065 79.0317 194.197L78.905 195.898L78.7588 197.928L78.5443 201.088C77.9569 201.084 77.3813 201.252 76.8904 201.572C76.3994 201.892 76.0151 202.349 75.7859 202.885C75.5812 203.475 75.0841 207.176 74.8989 208.79C74.8989 209.089 75.0354 209.138 75.2596 209.399H74.5578V211.235H75.8444C75.8456 211.008 75.8261 210.782 75.7859 210.558C75.8834 211.051 75.7859 211.38 75.9809 211.679C76.439 212.356 77.6281 212.433 78.749 212.646C81.5855 213.226 86.7807 214.318 87.0634 214.318H87.2583C87.093 213.815 86.9627 213.302 86.8684 212.781H87.5215C87.7323 213.925 88.1699 215.017 88.809 215.992C89.4482 216.968 90.2761 217.808 91.2449 218.464H30.6662C32.406 217.301 33.6682 215.56 34.2239 213.554H34.8965C34.825 213.812 34.747 214.063 34.6626 214.308H52.4024C53.3771 214.308 53.9522 214.028 53.9522 212.936V206.654C53.9586 206.422 53.913 206.192 53.8186 205.98C53.7242 205.767 53.5834 205.579 53.4064 205.427C52.958 205.06 52.4317 204.605 52.4317 204.596C51.8566 202.528 46.5054 199.02 43.3668 198.43L28.746 194.323C28.746 194.323 23.8822 191.936 17.8292 187.974C14.7881 186.041 12.3805 183.789 8.58887 182.726C18.1394 209.365 35.7732 232.418 59.0689 248.722C82.3645 265.025 110.18 273.779 138.694 273.78V273.78ZM207.178 210.239C207.095 210.031 206.994 209.831 206.876 209.64C207.003 209.834 207.108 210.041 207.188 210.259C207.191 210.301 207.191 210.343 207.188 210.384C207.176 210.335 207.16 210.286 207.139 210.239H207.178ZM75.591 210.239C75.5191 210.028 75.4209 209.827 75.2986 209.64C75.426 209.834 75.5307 210.041 75.6105 210.259C75.6049 210.297 75.6049 210.336 75.6105 210.375C75.6081 210.329 75.6016 210.284 75.591 210.239V210.239ZM104.832 213.061H105.417C105.341 213.519 105.223 213.968 105.066 214.405H143.568C143.46 214.087 143.369 213.765 143.295 213.438H143.889C144.422 215.514 145.701 217.325 147.486 218.531H101.148C103.049 217.252 104.373 215.291 104.842 213.061H104.832Z" fill="#E3B6B9"/>
<path d="M150.313 293.611H158.949V299.631H138.1L150.313 293.611Z" fill="#96C5CE"/>
<path d="M185.617 291.088L193.697 288.064L195.871 293.562L176.464 301.11L185.617 291.088Z" fill="#96C5CE"/>
<path d="M159.319 293.61C159.514 290.885 167.994 170.327 168.355 166.868H140.644L145.839 293.61H159.319Z" fill="#302169"/>
<path d="M146.843 166.868L151.882 221.218L173.258 221.121L173.959 188.718C178.082 176.483 175.909 168.018 175.558 166.868H146.843Z" fill="#302169"/>
<path d="M173.257 221.198L162.419 216.888L151.882 221.295L180.928 292.973L194.945 287.59L173.257 221.198Z" fill="#302169"/>
<path d="M156.132 75.9683L169.164 71.7258C169.164 71.7258 178.911 76.1905 178.55 84.4339C178.131 93.9916 172.429 116.151 172.429 138.987C172.429 140.765 176.162 166.916 176.162 166.916H138.957C141.979 97.7702 156.132 75.9683 156.132 75.9683Z" fill="#96C5CE"/>
<path d="M160.605 74.4897C160.605 74.4897 162.555 75.9972 165.713 74.5766C167.157 74.0194 168.372 72.9987 169.163 71.6774L164.68 62.7286L156.482 66.4879L160.605 74.4897Z" fill="#D996A0"/>
<path d="M167.721 42.2603C161.755 39.1582 155.322 41.2263 151.238 44.8793C150.146 45.9223 149.281 47.1767 148.697 48.5648C148.114 49.9529 147.824 51.445 147.846 52.9487L147.632 53.0936C147.688 53.4235 147.776 53.7472 147.895 54.06V54.06C148.392 55.4806 149.377 57.2588 149.484 57.7903C149.611 58.5441 149.221 62.7866 149.221 63.5887C149.221 64.1105 150.42 63.753 150.595 63.9752C151.784 65.5408 152.886 67.1547 153.656 68.2081L153.919 68.5463C154.357 69.1358 155.819 71.0106 157.213 70.8753C157.993 70.798 162.457 67.8988 165.352 65.85C174.173 59.5395 173.696 45.3528 167.721 42.2603Z" fill="#E0ACB1"/>
<path d="M157.457 39.9216C149.66 42.096 149.406 46.8024 146.511 49.1411C145.965 49.5277 145.34 49.7927 144.681 49.9178C144.021 50.0429 143.342 50.0252 142.69 49.8659C143.782 52.6008 145.615 54.5046 147.71 53.4609C149.558 52.2772 151.61 51.4418 153.763 50.9966C156.57 50.4457 158.919 56.5147 159.163 57.1139C159.69 58.4571 159.729 58.892 160.43 58.7374C160.723 58.6794 161.025 58.6118 161.278 58.5731C161.97 58.4861 161.902 57.9836 161.912 57.7613C161.912 56.3601 162.643 55.2487 164.017 55.442C164.992 55.5676 164.67 57.1912 164.212 58.5055C163.754 59.8198 164.524 66.314 165.343 65.8308C169.992 63.5307 171.415 60.7089 172.527 56.1668C175.441 44.0772 166.961 37.3124 157.457 39.9216Z" fill="#302169"/>
<path d="M165.011 62.5449C164.904 61.8008 164.641 60.7668 164.505 59.7907L164.037 59.5394C164.037 59.5394 164.738 63.637 161.805 65.8597C161.451 66.1617 160.999 66.3279 160.533 66.3279C160.066 66.3279 159.614 66.1617 159.261 65.8597C158.255 64.4897 156.771 63.5391 155.098 63.1924C153.546 62.9542 151.958 63.2765 150.625 64.1009C151.102 64.7194 151.55 65.3379 151.979 65.937C152.805 65.4567 153.772 65.2724 154.718 65.4152C155.764 65.5887 156.718 66.1143 157.418 66.9034C157.74 67.2803 157.662 68.3724 157.028 68.4883C156.47 68.6771 155.88 68.7521 155.292 68.7089C154.704 68.6658 154.131 68.5053 153.607 68.2371L153.763 68.44C154.026 68.8073 155.635 71.0493 157.155 70.9043C157.925 70.827 162.497 68.0728 165.294 65.879C165.333 65.8307 165.226 64.1975 165.011 62.5449Z" fill="#302169"/>
<path d="M96.8135 92.1948L94.2842 92.8799L99.6349 112.298L102.164 111.613L96.8135 92.1948Z" fill="#302169"/>
<path d="M175.246 79.4763C173.905 78.57 172.256 78.2279 170.661 78.525C169.066 78.8221 167.655 79.7342 166.737 81.0612L137.817 122.955L109.55 112.179C108.606 111.75 107.53 111.71 106.556 112.068C105.583 112.426 104.793 113.152 104.36 114.088C103.927 115.023 103.886 116.091 104.247 117.056C104.608 118.021 105.341 118.805 106.285 119.234L137.593 135.885C138.833 136.537 140.271 136.715 141.634 136.385C142.998 136.056 144.192 135.242 144.991 134.097L145.195 133.798L176.835 87.9516C177.294 87.2924 177.617 86.5498 177.786 85.7663C177.955 84.9829 177.966 84.1741 177.818 83.3864C177.67 82.5988 177.367 81.8479 176.926 81.1769C176.484 80.5058 175.913 79.9279 175.246 79.4763V79.4763Z" fill="#E0ACB1"/>
<path d="M169.885 100.524L177.682 88.1739C178.175 87.3973 178.509 86.5319 178.664 85.6274C178.82 84.7229 178.794 83.7968 178.589 82.9021C178.383 82.0074 178.002 81.1616 177.467 80.413C176.932 79.6644 176.253 79.0276 175.47 78.539C174.686 78.0504 173.814 77.7195 172.901 77.5654C171.989 77.4112 171.055 77.4367 170.153 77.6404C169.25 77.8441 168.397 78.222 167.642 78.7526C166.887 79.2832 166.245 79.956 165.752 80.7327L157.954 93.0832L169.885 100.524Z" fill="#96C5CE"/>
<path d="M109.121 109.048C102.142 105.569 100.144 104.525 97.1805 103.124C95.5235 102.351 93.3304 101.191 92.8235 102.003C92.3167 102.815 93.4181 103.936 95.1726 105.134C96.7517 106.197 95.8939 105.569 97.1221 106.371C97.1221 106.371 95.9329 106.787 96.8296 108.381C96.6234 108.446 96.4397 108.567 96.2991 108.73C96.1586 108.894 96.067 109.093 96.0345 109.305C96.0021 109.517 96.0301 109.734 96.1155 109.931C96.2009 110.128 96.3402 110.298 96.5177 110.42V110.42C96.5177 110.42 94.8412 110.971 96.1766 112.662C96.1766 112.662 94.5683 113.3 96.8394 115.426C97.3755 116.325 103.828 120.558 107.717 119.678L111.538 112.914C111.516 112.115 111.281 111.336 110.857 110.657C110.432 109.978 109.833 109.422 109.121 109.048V109.048Z" fill="#E0ACB1"/>
<path d="M91.7171 87.7394C88.1604 83.8443 80.2746 77.132 83.0208 70.9396C85.5096 65.4846 94.3489 66.5624 94.8829 72.9722C98.001 67.2998 106.516 69.9185 106.554 75.9124C106.554 82.6815 96.5611 85.6122 91.7171 87.7394Z" fill="#302169"/>
<path d="M84.0795 74.0783C83.8888 72.1876 85.8817 68.406 88.8472 69.3514C89.8008 69.6539 90.0487 70.8829 89.1905 71.1571C86.5587 72.0174 85.6051 73.7097 86.0342 75.0048C86.4633 76.3 84.356 77.1131 84.0795 74.0783Z" fill="white"/>
<path d="M111.372 55.7407C107.234 54.205 98.7742 52.2598 98.4485 46.6289C98.1705 41.6438 105.137 39.0764 107.98 43.6127C108.107 38.2653 115.407 36.9343 117.751 41.3524C120.38 46.3612 114.12 52.3228 111.356 55.7407H111.372Z" fill="#A293BF"/>
<path d="M100.434 48.5427C99.5765 47.2354 99.5686 43.652 102.095 43.2268C102.929 43.085 103.58 43.8962 103.056 44.4317C101.467 46.0698 101.396 47.6843 102.206 48.4718C103.016 49.2594 101.801 50.6455 100.434 48.5427Z" fill="white"/>
<g style="mix-blend-mode:multiply">
<path d="M248.593 296.626C248.593 302.424 210.423 307.198 163.335 307.198C116.246 307.198 78.0957 302.463 78.0957 296.626C78.0957 290.789 116.256 286.044 163.335 286.044C210.414 286.044 248.593 290.779 248.593 296.626Z" fill="#D8D9DD"/>
</g>
</svg>
