<svg width="349" height="314" viewBox="0 0 349 314" fill="none" xmlns="http://www.w3.org/2000/svg">
<path d="M165.873 303.17C165.873 306.554 144.541 309.304 118.322 309.304C92.1039 309.304 70.7715 306.554 70.7715 303.17C70.7715 299.786 92.1039 297.047 118.322 297.047C144.541 297.047 165.873 299.827 165.873 303.17Z" fill="#D8D9DD"/>
<path d="M103.897 297.047C103.897 300.431 80.6856 303.17 52.09 303.17C23.4944 303.17 0.282715 300.431 0.282715 297.047C0.282715 293.663 23.4944 290.923 52.09 290.923C80.6856 290.923 103.897 293.663 103.897 297.047Z" fill="#D8D9DD"/>
<path d="M183.355 305.749C183.355 309.848 204.637 313.161 230.896 313.161C257.155 313.161 278.457 309.848 278.457 305.749C278.457 301.649 257.125 298.336 230.896 298.336C204.668 298.336 183.355 301.649 183.355 305.749Z" fill="#D8D9DD"/>
<path d="M245.321 298.336C245.321 302.435 268.533 305.749 297.179 305.749C325.825 305.749 348.986 302.435 348.986 298.336C348.986 294.237 325.775 290.923 297.179 290.923C268.583 290.923 245.321 294.237 245.321 298.336Z" fill="#D8D9DD"/>
<path d="M176.407 283.45C255.332 283.45 319.314 220.015 319.314 141.763C319.314 63.5116 255.332 0.0762329 176.407 0.0762329C97.4816 0.0762329 33.5 63.5116 33.5 141.763C33.5 220.015 97.4816 283.45 176.407 283.45Z" fill="#E7F3FA"/>
<g opacity="0.71">
<path opacity="0.71" d="M63.6807 145.409C64.2198 144.628 64.5348 143.716 64.5919 142.77C64.649 141.825 64.4462 140.883 64.005 140.043C63.5637 139.203 62.9008 138.498 62.0869 138.003C61.2729 137.507 60.3386 137.241 59.3837 137.231C60.0103 136.462 60.4046 135.533 60.5209 134.551C60.6372 133.569 60.4709 132.574 60.0411 131.682C59.6113 130.79 58.9355 130.037 58.0921 129.51C57.2486 128.982 56.2718 128.703 55.2747 128.703C54.2775 128.703 53.3007 128.982 52.4573 129.51C51.6138 130.037 50.9381 130.79 50.5083 131.682C50.0784 132.574 49.9121 133.569 50.0284 134.551C50.1447 135.533 50.539 136.462 51.1656 137.231H50.8406C49.8716 137.231 48.9214 137.496 48.0944 137.997C47.2673 138.497 46.5954 139.214 46.1525 140.068C45.7095 140.923 45.5126 141.882 45.5834 142.84C45.6542 143.798 45.9899 144.718 46.5538 145.5C45.6535 146.103 44.8936 146.89 44.325 147.808C43.7564 148.726 43.3922 149.754 43.2567 150.823C43.1213 151.892 43.2178 152.978 43.5397 154.007C43.8616 155.036 44.4016 155.985 45.1234 156.79C45.8452 157.595 46.7322 158.239 47.7251 158.677C48.7179 159.115 49.7937 159.337 50.8804 159.33C51.967 159.322 53.0395 159.084 54.0259 158.632C55.0124 158.18 55.8901 157.525 56.6003 156.709C56.9826 164.291 56.6425 171.892 55.5845 179.41C55.5728 179.489 55.5929 179.569 55.6405 179.633C55.688 179.698 55.7592 179.741 55.8385 179.753V179.753C55.9116 179.75 55.9814 179.722 56.0367 179.675C56.092 179.627 56.1295 179.562 56.1432 179.491C57.2204 171.836 57.5605 164.096 57.159 156.377C57.7718 156.997 58.5037 157.49 59.3114 157.825C60.1192 158.161 60.9865 158.333 61.8623 158.331C63.4671 158.327 65.0162 157.748 66.2235 156.699C67.4307 155.651 68.2145 154.205 68.43 152.629C68.6455 151.052 68.2782 149.451 67.3958 148.122C66.5134 146.793 65.1757 145.826 63.6299 145.399L63.6807 145.409Z" fill="#CDE4EB"/>
<path opacity="0.71" d="M104.273 148.602C104.918 147.664 105.294 146.571 105.362 145.438C105.43 144.305 105.187 143.176 104.658 142.169C104.13 141.162 103.336 140.317 102.361 139.722C101.386 139.127 100.267 138.806 99.1225 138.792C99.8704 137.87 100.34 136.757 100.477 135.582C100.615 134.406 100.414 133.216 99.8981 132.149C99.3824 131.082 98.573 130.181 97.5631 129.551C96.5532 128.92 95.3841 128.585 94.1906 128.585C92.9972 128.585 91.8281 128.92 90.8182 129.551C89.8083 130.181 88.9988 131.082 88.4832 132.149C87.9676 133.216 87.7668 134.406 87.904 135.582C88.0412 136.757 88.5109 137.87 89.2588 138.792H88.8829C87.7116 138.783 86.5606 139.096 85.5578 139.696C84.5549 140.296 83.7394 141.16 83.2017 142.192C82.664 143.223 82.4251 144.383 82.5117 145.541C82.5983 146.699 83.0068 147.811 83.692 148.753C82.6176 149.48 81.7121 150.427 81.0362 151.53C80.3603 152.632 79.9296 153.865 79.7727 155.145C79.6159 156.426 79.7366 157.725 80.1267 158.956C80.5169 160.187 81.1675 161.321 82.0352 162.282C82.9028 163.243 83.9674 164.01 85.1579 164.531C86.3484 165.052 87.6373 165.315 88.9384 165.302C90.2395 165.289 91.523 165.001 92.7029 164.457C93.8828 163.914 94.932 163.126 95.7804 162.148C96.2389 171.23 95.8308 180.335 94.5614 189.341C94.5527 189.389 94.5537 189.438 94.5644 189.485C94.5751 189.532 94.5953 189.577 94.6237 189.617C94.6521 189.656 94.6882 189.689 94.7298 189.715C94.7715 189.74 94.8178 189.757 94.8662 189.764H94.9271C95.0162 189.761 95.1014 189.727 95.168 189.668C95.2347 189.609 95.2788 189.529 95.2928 189.442C96.5847 180.266 96.9895 170.988 96.5016 161.735C97.3601 162.597 98.4072 163.252 99.5617 163.648C100.716 164.045 101.947 164.173 103.16 164.022C104.372 163.871 105.533 163.446 106.553 162.779C107.573 162.112 108.425 161.221 109.042 160.176C109.659 159.13 110.025 157.958 110.112 156.75C110.2 155.541 110.005 154.329 109.544 153.207C109.083 152.086 108.368 151.084 107.454 150.28C106.54 149.476 105.451 148.892 104.273 148.572V148.602Z" fill="#DAEBF2"/>
<path opacity="0.71" d="M233.476 212.375C197.922 212.576 106.162 190.59 36.9844 172.945C43.3305 200.784 58.0068 226.076 79.0919 245.508C100.177 264.94 126.688 277.608 155.156 281.852C183.623 286.097 212.72 281.721 238.637 269.298C264.554 256.874 286.085 236.981 300.409 212.224C283.079 212.204 259.756 212.204 233.476 212.375Z" fill="#DAEBF2"/>
</g>
<path d="M179.942 128.187C179.91 127.902 179.893 127.617 179.892 127.331C179.905 125.202 180.767 123.166 182.29 121.666C183.812 120.166 185.872 119.324 188.018 119.324C188.536 119.328 189.053 119.379 189.562 119.475C189.547 119.183 189.547 118.89 189.562 118.599C189.563 116.694 190.1 114.827 191.113 113.209C192.126 111.59 193.574 110.284 195.295 109.437C197.015 108.591 198.94 108.237 200.853 108.416C202.766 108.595 204.59 109.3 206.12 110.451C206.307 107.165 207.778 104.081 210.221 101.853C212.664 99.6255 215.886 98.4293 219.204 98.5184C222.522 98.6075 225.674 99.975 227.992 102.331C230.31 104.686 231.61 107.845 231.618 111.135C231.618 111.337 231.618 111.538 231.618 111.74C233.253 110.726 235.164 110.238 237.09 110.343C239.016 110.448 240.862 111.141 242.376 112.326C243.889 113.511 244.996 115.132 245.545 116.965C246.095 118.798 246.059 120.755 245.443 122.567C246.021 122.404 246.62 122.323 247.221 122.325C248.853 122.325 250.427 122.927 251.636 124.014C252.846 125.101 253.604 126.596 253.763 128.207L179.942 128.187Z" fill="white"/>
<path d="M146.46 67.173C146.407 66.7351 146.38 66.2946 146.379 65.8536C146.375 64.2284 146.695 62.6185 147.322 61.1166C147.948 59.6147 148.868 58.2506 150.028 57.1028C151.189 55.955 152.567 55.0463 154.083 54.4289C155.6 53.8116 157.224 53.4979 158.863 53.5059C159.658 53.5083 160.45 53.5825 161.23 53.7274C161.23 53.2742 161.169 52.8311 161.169 52.3678C161.169 49.4367 161.995 46.5639 163.554 44.0733C165.112 41.5827 167.342 39.5733 169.991 38.2717C172.639 36.9701 175.602 36.4281 178.545 36.7067C181.488 36.9854 184.294 38.0737 186.646 39.8488C186.93 34.7961 189.188 30.0516 192.941 26.622C196.694 23.1924 201.648 21.3474 206.75 21.4785C211.852 21.6095 216.703 23.7062 220.272 27.3239C223.841 30.9415 225.848 35.7954 225.868 40.856C225.868 41.1682 225.868 41.4804 225.868 41.8027C228.188 40.3037 230.9 39.5091 233.669 39.5164C237.489 39.5164 241.153 41.0211 243.855 43.6994C246.556 46.3777 248.074 50.0102 248.074 53.7979C248.075 55.3714 247.81 56.9339 247.291 58.4208C248.184 58.1744 249.107 58.0491 250.034 58.0481C252.545 58.0581 254.964 58.9899 256.823 60.6639C258.682 62.3378 259.85 64.6352 260.101 67.1125L146.46 67.173Z" fill="white"/>
<path d="M68.5972 105.163C68.5972 104.931 68.5972 104.69 68.5972 104.448C68.5997 103.449 68.8237 102.463 69.253 101.559C69.6824 100.656 70.3068 99.8566 71.0821 99.2186C71.8573 98.5807 72.7645 98.1194 73.7394 97.8674C74.7143 97.6154 75.7331 97.5789 76.7238 97.7603C76.7238 97.5086 76.7238 97.2668 76.7238 97.005C76.7266 95.3864 77.1847 93.8006 78.0466 92.4259C78.9085 91.0513 80.14 89.9422 81.6027 89.2233C83.0655 88.5045 84.7014 88.2044 86.3268 88.3567C87.9521 88.5091 89.5023 89.1079 90.8032 90.0858C90.9207 87.2643 92.1537 84.602 94.2354 82.6747C96.3171 80.7474 99.0804 79.71 101.928 79.7868C104.775 79.8635 107.477 81.0483 109.45 83.0849C111.423 85.1215 112.508 87.8463 112.471 90.67C112.471 90.8412 112.471 91.0124 112.471 91.1836C113.672 90.4139 115.061 89.9795 116.49 89.9264C117.919 89.8732 119.337 90.2032 120.593 90.8816C121.849 91.5599 122.897 92.5616 123.628 93.781C124.358 95.0005 124.743 96.3926 124.742 97.8107C124.756 98.6942 124.615 99.5733 124.326 100.409C124.818 100.271 125.327 100.2 125.839 100.198C127.233 100.199 128.576 100.716 129.605 101.648C130.635 102.579 131.277 103.858 131.406 105.233L68.5972 105.163Z" fill="white"/>
<path d="M146.532 173.166C147.145 172.281 147.505 171.247 147.571 170.175C147.637 169.103 147.408 168.033 146.908 167.08C146.408 166.127 145.656 165.326 144.733 164.765C143.809 164.203 142.749 163.901 141.666 163.89C142.375 163.017 142.821 161.963 142.951 160.85C143.082 159.736 142.892 158.609 142.404 157.598C141.916 156.587 141.15 155.733 140.193 155.135C139.236 154.538 138.129 154.221 136.998 154.221C135.868 154.221 134.76 154.538 133.803 155.135C132.847 155.733 132.08 156.587 131.592 157.598C131.104 158.609 130.914 159.736 131.045 160.85C131.176 161.963 131.621 163.017 132.33 163.89H131.965C130.378 163.89 128.856 164.515 127.734 165.628C126.612 166.74 125.981 168.249 125.981 169.823C125.985 171.059 126.372 172.265 127.089 173.277C126.106 173.98 125.282 174.88 124.672 175.918C124.062 176.956 123.679 178.11 123.547 179.305C123.415 180.499 123.538 181.708 123.907 182.852C124.276 183.997 124.884 185.052 125.691 185.949C126.497 186.845 127.485 187.564 128.59 188.059C129.694 188.553 130.892 188.812 132.104 188.818C133.316 188.825 134.515 188.579 135.625 188.097C136.735 187.614 137.731 186.906 138.547 186.018C138.985 194.619 138.594 203.243 137.379 211.771C137.367 211.863 137.391 211.955 137.446 212.03C137.5 212.105 137.582 212.156 137.674 212.174H137.724C137.809 212.172 137.89 212.141 137.953 212.086C138.016 212.03 138.058 211.954 138.07 211.872C139.296 203.199 139.68 194.43 139.218 185.685C140.03 186.501 141.021 187.121 142.114 187.496C143.207 187.871 144.372 187.992 145.519 187.849C146.667 187.707 147.765 187.304 148.731 186.673C149.696 186.042 150.502 185.199 151.086 184.209C151.67 183.22 152.017 182.11 152.099 180.967C152.182 179.823 151.998 178.676 151.561 177.614C151.125 176.553 150.448 175.605 149.583 174.844C148.718 174.083 147.688 173.53 146.572 173.227L146.532 173.166Z" fill="white"/>
<g opacity="0.91">
<path opacity="0.91" d="M298.124 131.54C299.39 129.714 300.131 127.581 300.268 125.369C300.405 123.157 299.933 120.95 298.902 118.984C297.871 117.018 296.32 115.367 294.415 114.208C292.51 113.049 290.323 112.426 288.088 112.404C289.547 110.606 290.465 108.436 290.733 106.143C291.001 103.85 290.61 101.529 289.605 99.4472C288.6 97.3654 287.021 95.6079 285.051 94.3777C283.082 93.1475 280.801 92.4948 278.473 92.4948C276.145 92.4948 273.865 93.1475 271.895 94.3777C269.925 95.6079 268.346 97.3654 267.341 99.4472C266.336 101.529 265.945 103.85 266.213 106.143C266.482 108.436 267.399 110.606 268.858 112.404C268.604 112.404 268.36 112.404 268.106 112.404C265.84 112.404 263.617 113.022 261.682 114.192C259.747 115.362 258.174 117.039 257.137 119.037C256.1 121.035 255.638 123.278 255.803 125.519C255.967 127.761 256.752 129.914 258.07 131.742C255.961 133.152 254.181 134.993 252.849 137.142C251.517 139.29 250.664 141.696 250.347 144.198C250.03 146.7 250.256 149.241 251.01 151.649C251.764 154.057 253.03 156.278 254.721 158.162C256.412 160.045 258.489 161.549 260.815 162.571C263.14 163.593 265.659 164.111 268.202 164.089C270.745 164.067 273.255 163.505 275.561 162.443C277.868 161.38 279.919 159.841 281.576 157.928C282.47 175.659 281.667 193.434 279.179 211.015C279.156 211.202 279.206 211.39 279.32 211.54C279.433 211.691 279.601 211.791 279.789 211.821H279.9C280.072 211.82 280.238 211.757 280.367 211.644C280.496 211.531 280.579 211.376 280.601 211.207C283.138 193.312 283.934 175.218 282.978 157.173C284.654 158.852 286.696 160.126 288.948 160.897C291.199 161.669 293.6 161.916 295.963 161.621C298.327 161.325 300.59 160.494 302.578 159.193C304.566 157.891 306.226 156.154 307.428 154.115C308.63 152.076 309.344 149.79 309.513 147.434C309.682 145.078 309.302 142.715 308.402 140.528C307.503 138.341 306.108 136.388 304.326 134.821C302.544 133.254 300.422 132.114 298.124 131.49V131.54Z" fill="#BCD7E2"/>
<path opacity="0.91" d="M298.104 165.179C274.557 182.301 204.211 219.919 88.0608 220.573C77.7705 220.624 67.9169 221.077 58.5205 221.842C75.3187 246.152 99.3441 264.663 127.252 274.799C155.159 284.935 185.56 286.191 214.222 278.393C242.883 270.594 268.379 254.129 287.159 231.29C305.939 208.451 317.069 180.374 318.999 150.969C314.774 153.527 308.191 157.817 298.104 165.179Z" fill="#B2D5E2"/>
</g>
<path d="M120.994 236.164H75.1187L83.0015 258.07L109.027 253.497L120.577 300.28H131.335L120.994 236.164Z" fill="#302169"/>
<path d="M83.6111 236.164H60.887C60.887 236.164 56.2853 245.551 60.7955 260.658L69.298 286.482L21.2798 281.063V289.896L91.5447 303.17C90.3358 295.637 83.6111 236.164 83.6111 236.164Z" fill="#302169"/>
<path d="M162.602 221.187C160.449 221.764 158.182 221.764 156.029 221.187C155.278 220.966 155.227 220.07 155.877 219.918C158.569 219.324 159.94 217.904 152.383 218.015C151.265 218.015 150.229 217.965 149.335 217.955C148.969 217.746 148.565 217.613 148.147 217.562V217.562C142.331 216.915 136.601 215.663 131.05 213.825C125.546 211.99 120.271 209.541 115.325 206.523C110.412 203.521 105.864 199.965 101.774 195.928C99.7457 193.924 97.8362 191.806 96.0549 189.583C95.1712 188.475 94.328 187.337 93.5357 186.189C93.1395 185.615 92.7535 185.031 92.3878 184.457L91.8596 183.59C91.697 183.318 91.5244 183.006 91.4228 182.805L91.2907 182.593C90.6751 181.541 89.663 180.774 88.4771 180.461C87.2913 180.149 86.0287 180.316 84.9672 180.926C83.9057 181.537 83.1322 182.54 82.817 183.716C82.5017 184.892 82.6704 186.144 83.286 187.196V187.256C83.5603 187.71 83.7736 188.042 84.0174 188.405C84.2612 188.767 84.4644 189.11 84.7082 189.412C85.1754 190.097 85.663 190.751 86.1405 191.426C87.1563 192.725 88.1721 193.964 89.188 195.173C91.2843 197.585 93.5231 199.872 95.8924 202.021C105.343 210.576 116.654 216.858 128.947 220.382C135.012 222.111 141.242 223.205 147.537 223.645C147.703 223.66 147.869 223.66 148.035 223.645C151.235 226.092 157.523 227.462 162.663 225.75C171.785 222.698 164.613 220.634 162.602 221.187Z" fill="#BB684E"/>
<path d="M97.9646 190.429L91.2195 180.982C90.3614 179.78 89.0568 178.965 87.5928 178.717C86.1288 178.468 84.6252 178.807 83.4128 179.657C82.2005 180.508 81.3786 181.802 81.1281 183.253C80.8776 184.705 81.2189 186.195 82.077 187.397L88.8221 196.845L97.9646 190.429Z" fill="#E0A500"/>
<path d="M92.5305 175.362L89.1173 174.828L83.6115 173.962L80.0053 173.408C75.2207 172.663 72.8944 175.241 72.4068 178.031C70.5174 189.946 60.7959 236.164 60.7959 236.164H93.3025C93.3025 236.164 99.0521 197.207 100.413 188.616C101.419 181.989 97.315 176.107 92.5305 175.362Z" fill="#F3DBA0"/>
<path d="M92.0117 176.168C91.3332 176.981 90.4333 177.583 89.4192 177.902C88.4052 178.222 87.3198 178.246 86.2925 177.971C85.2677 177.749 84.3102 177.291 83.4981 176.633C82.686 175.975 82.0423 175.135 81.6196 174.184L82.8691 167.788L93.251 169.802L92.0117 176.168Z" fill="#BB684E"/>
<path d="M100.871 162.47C100.255 165.407 98.4877 167.981 95.9578 169.626C93.4279 171.272 90.3425 171.853 87.3803 171.243V171.243C85.914 170.942 84.5218 170.357 83.2835 169.522C82.0451 168.688 80.9848 167.619 80.1631 166.378C79.3414 165.137 78.7745 163.747 78.4947 162.289C78.2149 160.83 78.2277 159.331 78.5324 157.878L79.8225 151.724C80.1261 150.269 80.7161 148.888 81.5587 147.659C82.4012 146.431 83.4799 145.379 84.7329 144.564C85.9859 143.749 87.3886 143.188 88.8608 142.911C90.3331 142.634 91.8459 142.648 93.3127 142.952V142.952C94.7777 143.253 96.1685 143.837 97.4057 144.671C98.6428 145.505 99.702 146.573 100.523 147.813C101.344 149.054 101.91 150.442 102.189 151.899C102.468 153.357 102.455 154.854 102.15 156.307L100.871 162.47Z" fill="#C1755D"/>
<path d="M103.887 153.789C103.643 151.371 102.617 151.976 102.871 150.213C103.308 147.141 101.977 146.94 100.281 146.185C98.3204 145.369 99.062 144.11 97.589 142.398C96.8455 141.794 95.957 141.391 95.01 141.229C94.063 141.066 93.0897 141.15 92.1848 141.471C90.2243 142.126 89.5538 142.337 87.705 141.874C86.7003 141.615 85.6333 141.76 84.7355 142.277C83.8378 142.793 83.1819 143.64 82.9103 144.633C82.6392 145.566 82.1748 146.431 81.5468 147.175C80.9189 147.919 80.1411 148.525 79.2634 148.954C76.094 150.304 76.988 153.376 77.9733 154.937C78.2102 155.373 78.3442 155.858 78.3653 156.353C78.3864 156.848 78.2941 157.342 78.0952 157.797C77.7641 158.538 77.3109 159.218 76.7543 159.811C76.4446 160.255 76.2354 160.76 76.1408 161.292C76.0463 161.824 76.0688 162.369 76.2068 162.892C76.3447 163.414 76.5949 163.9 76.9401 164.318C77.2854 164.735 77.7175 165.074 78.207 165.31C80.1675 166.177 80.2386 167.466 80.1167 168.271C79.8729 169.722 81.7522 171.293 83.6925 169.722C85.1756 168.402 82.829 166.63 83.1134 165.441C83.7941 162.631 82.7782 161.785 82.7782 161.785C82.2873 161.511 81.8829 161.106 81.61 160.617C80.97 159.489 81.0513 158.23 81.803 157.807C82.1158 157.679 82.461 157.651 82.7906 157.727C83.1202 157.803 83.4177 157.979 83.6417 158.23V158.23C86.1101 159.167 85.46 156.075 86.039 155.088C86.6181 154.101 87.9488 154.453 89.5335 155.219C91.1182 155.984 92.4896 154.594 94.3993 154.413C96.3091 154.232 97.3859 155.833 99.8036 156.669C100.267 156.835 100.764 156.887 101.252 156.821C101.74 156.755 102.205 156.573 102.607 156.29C103.008 156.006 103.334 155.631 103.557 155.195C103.78 154.76 103.894 154.277 103.887 153.789Z" fill="#302169"/>
<path d="M128.166 300.3H120.913V305.346H138.405L128.166 300.3Z" fill="#96C5CE"/>
<path d="M21.2799 288.879V281.698H16.1904V299.031L21.2799 288.879Z" fill="#96C5CE"/>
<path d="M274.394 202.877C273.932 202.371 273.375 201.959 272.753 201.666C272.131 201.373 271.457 201.204 270.769 201.17C270.081 201.135 269.394 201.235 268.745 201.464C268.096 201.693 267.499 202.047 266.989 202.505L236.28 229.98L213.282 217.129C213.01 216.92 212.7 216.766 212.369 216.677C212.038 216.587 211.692 216.563 211.351 216.606C211.01 216.649 210.682 216.758 210.384 216.927C210.086 217.097 209.824 217.323 209.615 217.592C208.538 218.962 209.614 220.734 211.037 221.802L234.035 240.636C234.927 241.334 236.04 241.697 237.176 241.66C238.311 241.623 239.398 241.189 240.242 240.434L240.496 240.203L274.018 210.22C274.529 209.762 274.944 209.209 275.24 208.593C275.535 207.976 275.705 207.308 275.74 206.626C275.775 205.944 275.674 205.262 275.443 204.619C275.212 203.976 274.856 203.384 274.394 202.877V202.877Z" fill="#D996A0"/>
<path d="M196.053 219.838C188.16 214.359 195.637 214.379 197.425 215.487C199.334 216.642 201.517 217.275 203.753 217.32C204.535 217.32 204.85 216.474 204.261 216.152C201.843 214.822 200.96 213.08 208.172 215.296C211.22 216.243 213.82 216.363 213.82 218.428C213.83 223.192 202.697 224.461 196.053 219.838Z" fill="#D996A0"/>
<path d="M265.698 218.66L275.003 210.552C276.113 209.505 276.771 208.072 276.84 206.555C276.909 205.037 276.382 203.552 275.371 202.411C274.361 201.269 272.943 200.56 271.417 200.431C269.89 200.302 268.372 200.764 267.181 201.719L257.866 209.776L265.698 218.66Z" fill="#D996A0"/>
<path d="M225.959 233.425C239.47 238.863 262.255 252.178 262.255 252.178L261.635 262.108L250.877 272.704C250.877 272.704 234.553 257.375 227.513 251.715C226.274 250.707 224.395 249.317 224.395 253.376C224.395 254.212 223.48 300.179 223.48 300.179H210.61V244.654C210.61 237.695 218.797 230.524 225.959 233.425Z" fill="#302169"/>
<path d="M214.775 300.179H222.079V305.255H204.454L214.775 300.179Z" fill="#C75984"/>
<path d="M266.389 287.599C266.389 287.599 273.195 285.263 281.017 282.211C289.144 279.029 288.575 268.524 288.575 268.524L261.635 262.108C261.635 262.108 232.318 289.896 232.318 295.747C232.318 302.928 235.711 305.889 241.725 305.265C260.254 303.362 331.494 295.506 331.494 295.506V283.873L281.017 282.211L266.389 287.599Z" fill="#302169"/>
<path d="M331.494 290.963V283.722H336.634V301.196L331.494 290.963Z" fill="#C75984"/>
<path d="M262.214 196.089C262.996 195.082 267.872 194.367 269.579 194.347C271.094 194.451 272.557 194.936 273.83 195.757C275.103 196.579 276.143 197.709 276.852 199.04C280.794 206.614 282.399 214.893 285.649 228.349C290.241 247.313 289.459 268.735 289.459 268.735L261.635 262.108C262.389 253.928 262.528 245.704 262.052 237.504C260.975 224.35 259.461 218.609 258.811 213.563C257.399 202.857 261.036 197.681 262.214 196.089Z" fill="#A293BF"/>
<path d="M281.017 282.211C279.26 282.946 277.492 283.631 275.725 284.306C273.957 284.981 272.159 285.615 270.371 286.25C268.583 286.885 266.785 287.489 264.977 288.063L262.265 288.919C261.351 289.191 260.436 289.463 259.532 289.715C260.396 289.342 261.279 289 262.163 288.637L264.815 287.63C266.592 286.945 268.38 286.31 270.168 285.676C271.956 285.041 273.754 284.447 275.562 283.873C277.37 283.299 279.179 282.705 281.017 282.211Z" fill="#6C7FB8" stroke="#0E0034" stroke-width="0.32" stroke-miterlimit="10"/>
<path d="M218.828 173.005H138.699L148.472 161.332H209.045L218.828 173.005Z" fill="#302169"/>
<path d="M232.522 178.222L218.828 173.005L208.944 161.332L221.52 166.026L232.522 178.222Z" fill="#667AB4"/>
<path d="M124.915 178.222L138.619 173.005L148.492 161.332L135.916 166.026L124.915 178.222Z" fill="#667AB4"/>
<path d="M178.723 178.222C163.272 167.144 130.318 149.428 135.459 125.618C140.101 104.579 172.028 101.799 178.723 123.957C185.417 101.799 217.324 104.579 221.967 125.618C227.117 149.428 194.163 167.144 178.723 178.222Z" fill="#E3B6B9"/>
<path d="M141.523 135.861C139.492 129.446 143.555 114.489 154.617 115.607C158.244 115.97 160.001 120.099 157.187 121.731C148.583 126.706 146.521 133.363 148.99 137.573C151.265 141.461 144.794 146.164 141.523 135.861Z" fill="white"/>
<path d="M218.777 173.005H138.649V220.704H218.777V173.005Z" fill="#667AB4"/>
<path d="M218.777 173.005H138.649L130.451 187.488H226.975L218.777 173.005Z" fill="#667AB4"/>
<path d="M138.649 187.488C145.333 187.035 152.007 186.813 158.681 186.642C165.355 186.471 172.039 186.471 178.713 186.38C185.397 186.471 192.071 186.461 198.745 186.632C205.419 186.803 212.103 187.025 218.777 187.488C212.103 187.951 205.429 188.163 198.745 188.344C192.061 188.525 185.397 188.515 178.713 188.596C172.039 188.505 165.365 188.515 158.681 188.334C151.997 188.153 145.333 187.951 138.649 187.488Z" fill="#302169"/>
<path d="M86.3637 183.681C86.4754 183.882 86.6684 184.185 86.8411 184.457L87.3998 185.292C87.796 185.856 88.1922 186.421 88.6188 186.985C89.4518 188.092 90.3457 189.19 91.2701 190.268C93.1389 192.423 95.1369 194.465 97.2534 196.381C101.503 200.26 106.19 203.639 111.221 206.453C116.284 209.263 121.651 211.496 127.22 213.11C132.855 214.71 138.643 215.722 144.49 216.132V216.132C144.894 216.154 145.29 216.254 145.655 216.428C146.02 216.601 146.347 216.844 146.617 217.143C146.887 217.442 147.095 217.791 147.23 218.169C147.364 218.548 147.422 218.949 147.4 219.35C147.378 219.75 147.276 220.143 147.101 220.505C146.926 220.867 146.681 221.191 146.38 221.459C146.078 221.727 145.727 221.933 145.345 222.066C144.963 222.2 144.558 222.257 144.154 222.235C137.846 222.043 131.575 221.199 125.443 219.717C113.017 216.694 101.462 210.869 91.6765 202.696C89.2104 200.651 86.8762 198.454 84.6875 196.119C83.5803 194.951 82.5238 193.753 81.4877 192.494C80.9696 191.869 80.4718 191.225 79.9741 190.57C79.7201 190.238 79.4763 189.905 79.2325 189.563C78.9887 189.22 78.7551 188.888 78.4605 188.435C77.8018 187.405 77.5826 186.158 77.8512 184.968C78.1198 183.778 78.8542 182.743 79.8928 182.09C80.9314 181.437 82.1891 181.219 83.3893 181.486C84.5895 181.752 85.6338 182.48 86.2925 183.51L86.3637 183.681Z" fill="#C1755D"/>
<path d="M159.321 223.736C168.301 220.352 161.048 218.569 159.057 219.204C156.934 219.862 154.672 219.949 152.505 219.455C151.733 219.264 151.641 218.368 152.291 218.196C154.963 217.491 156.243 216.031 148.726 216.434C145.516 216.605 143.007 216.101 142.489 218.096C141.31 222.698 151.753 226.596 159.321 223.736Z" fill="#C1755D"/>
<path d="M93.2308 191.053L86.1201 181.878C85.6852 181.267 85.1303 180.749 84.4886 180.356C83.8469 179.963 83.1317 179.703 82.3859 179.59C81.6401 179.478 80.8792 179.517 80.1488 179.704C79.4183 179.89 78.7335 180.221 78.1355 180.677C77.5374 181.133 77.0384 181.704 76.6685 182.356C76.2986 183.007 76.0653 183.727 75.9828 184.47C75.9003 185.213 75.9702 185.966 76.1883 186.682C76.4064 187.398 76.7682 188.062 77.2519 188.636L84.3627 197.822L93.2308 191.053Z" fill="#F3DBA0"/>
<path d="M270.168 186.833V197.469C269.244 198.471 267.96 199.075 266.593 199.151C265.747 199.245 264.891 199.108 264.119 198.752C263.347 198.397 262.688 197.838 262.214 197.137V186.833H270.168Z" fill="#E3B6B9"/>
<path d="M265.8 192.131C266.887 189.382 268.198 189.976 268.848 187.095C269.102 185.917 268.34 184.557 268.848 183.51C268.852 183.476 268.852 183.443 268.848 183.409C269.305 182.271 269.295 181.042 268.523 180.7L268.279 180.589C266.836 180.247 265.993 181.737 266.024 183.298C266.024 183.298 264.876 183.53 264.876 183.298C264.876 182.744 264.876 182.16 264.876 181.808C264.876 181.224 264.652 179.693 263.332 179.693C255.297 179.693 253.824 177.739 253.813 177.678C253.885 178.998 255.012 181.506 255.073 182.12C255.134 182.734 254.382 186.662 254.321 187.367C254.321 187.841 255.398 187.619 255.54 187.841C256.556 189.472 258.375 191.728 258.974 192.746C259.325 193.189 259.764 193.556 260.263 193.825C260.763 194.093 261.313 194.257 261.879 194.307C263.179 194.307 264.378 193.43 265.78 192.131C265.787 192.131 265.794 192.131 265.8 192.131V192.131Z" fill="#E3B6B9"/>
<path d="M275.501 200.853C275.04 200.347 274.484 199.935 273.863 199.642C273.242 199.35 272.568 199.181 271.881 199.146C271.194 199.112 270.507 199.212 269.86 199.441C269.212 199.67 268.616 200.023 268.106 200.48L237.387 227.966L214.399 215.104C213.058 214.329 211.707 214.339 210.732 215.578C209.757 216.817 210.783 218.72 212.144 219.788L235.162 238.612C236.055 239.31 237.167 239.672 238.303 239.635C239.439 239.599 240.525 239.164 241.369 238.41L241.633 238.178L275.156 208.195C275.665 207.736 276.077 207.181 276.37 206.564C276.663 205.946 276.83 205.277 276.862 204.595C276.894 203.913 276.791 203.232 276.557 202.59C276.324 201.948 275.965 201.358 275.501 200.853Z" fill="#E3B6B9"/>
<path d="M197.16 217.814C189.267 212.335 196.754 212.355 198.542 213.463C200.447 214.619 202.627 215.255 204.86 215.306C205.653 215.306 205.957 214.46 205.368 214.127C202.951 212.798 202.067 211.055 209.279 213.271C212.327 214.218 214.917 214.339 214.927 216.414C214.937 221.178 203.814 222.437 197.16 217.814Z" fill="#E3B6B9"/>
<path d="M265.048 219.697L276.223 210.008C277.549 208.752 278.334 207.036 278.414 205.219C278.494 203.403 277.863 201.625 276.653 200.259C275.442 198.893 273.746 198.043 271.919 197.887C270.092 197.731 268.274 198.281 266.846 199.423L255.672 209.122L265.048 219.697Z" fill="#A293BF"/>
<path d="M253.864 174.224C254.667 170.749 259.268 166.066 263.667 166.066C272.667 166.066 274.74 170.699 275.715 174.496C276.067 176.062 276.311 177.65 276.446 179.25C276.71 181.626 277.817 190.097 280.926 196.583C284.573 204.197 290.302 209.494 287.955 216.988C285.609 224.481 288.088 232.357 291.338 234.291C294.589 236.224 293.024 244.886 287.275 244.886C281.525 244.886 284.055 241.492 274.16 243.738C264.866 245.853 266.257 238.188 270.229 232.085C273.002 227.815 265.8 225.911 269.02 220.221C269.975 218.529 268.228 216.091 267.324 214.933C266.42 213.775 265.242 208.145 267.994 204.066C269.488 201.87 268.126 200.974 266.826 198.647C265.526 196.321 265.13 193.672 265.739 192.131C266.826 189.382 268.137 189.976 268.787 187.095C269.051 185.917 268.289 184.557 268.787 183.51C269.285 182.462 269.132 180.962 268.279 180.76C266.836 180.418 266.095 181.767 266.115 183.339C266.115 183.339 264.845 183.53 264.845 183.339V181.888C264.845 181.304 264.632 179.773 263.311 179.773C255.185 179.773 253.783 177.759 253.783 177.759C253.603 176.585 253.631 175.389 253.864 174.224V174.224Z" fill="#302169"/>
</svg>
