<svg width="271" height="313" viewBox="0 0 271 313" fill="none" xmlns="http://www.w3.org/2000/svg">
<g style="mix-blend-mode:multiply">
<path d="M198.614 302.074C198.614 307.586 170.751 312.048 136.386 312.048C102.02 312.048 74.1479 307.586 74.1479 302.074C74.1479 296.563 102.01 292.11 136.386 292.11C170.761 292.11 198.614 296.61 198.614 302.074Z" fill="#D8D9DD"/>
</g>
<path d="M270.015 134.407C270.016 160.804 262.124 186.608 247.335 208.558C232.546 230.507 211.524 247.616 186.928 257.721C162.333 267.826 135.267 270.474 109.154 265.328C83.0404 260.183 59.0523 247.477 40.2223 228.815C21.3924 210.154 8.56628 186.376 3.36574 160.488C-1.8348 134.6 0.823788 107.764 11.0053 83.374C21.1869 58.9839 38.4342 38.1346 60.5664 23.4624C82.6987 8.79023 108.722 0.954059 135.346 0.944711C153.028 0.938502 170.538 4.38596 186.875 11.0902C203.213 17.7944 218.059 27.624 230.565 40.0177C243.07 52.4113 252.991 67.1261 259.76 83.3216C266.529 99.5172 270.013 116.876 270.015 134.407V134.407Z" fill="#E7F3FA"/>
<path d="M270.015 134.407C270.01 128.944 269.675 123.485 269.014 118.061H263.159V147.028H251.335V112.048H241.99V132.734H232.827V141.81H223.682V151.963H210.704V129.141H199.92V145.856H186.294V118.903H178.418V96.818H165.297V156.482H148.648V129.141H141.716V147.104H129.939V100.231H120.604V132.687H111.441V141.762H102.296V151.916H89.3186V95.2487H78.5341V140.212H64.9079V153.155H55.5537V130.673H37.8369V156.482H25.7841V118.061H18.8614V147.028H7.08519V112.048H2.63215C-1.42786 135.747 1.03516 160.093 9.76165 182.52C18.4881 204.947 33.1549 224.624 52.2163 239.479H218.428C234.515 227.003 247.521 211.056 256.46 192.85C265.399 174.643 270.035 154.656 270.015 134.407V134.407Z" fill="#CDE4EB"/>
<path d="M241.017 217.13V213.831H238.71L237.27 161.833H238.614V157.333H255.368V161.833H256.665L255.778 194.119C264.821 176.199 269.662 156.485 269.938 136.449L210.437 97.0544L135.746 146.669L139.007 150.12L141.735 148.342V155.537H139.074V157.352H146.102V161.852H147.427L145.987 213.849H143.68V218.387H141.992V234.298H122.902C123.917 225.829 124.208 217.29 123.77 208.773C124.651 209.636 125.719 210.288 126.893 210.68C128.067 211.072 129.316 211.192 130.544 211.033C131.772 210.873 132.947 210.438 133.98 209.76C135.012 209.081 135.875 208.178 136.502 207.119C137.129 206.06 137.504 204.873 137.598 203.648C137.691 202.424 137.502 201.194 137.044 200.053C136.586 198.912 135.87 197.89 134.953 197.065C134.036 196.24 132.941 195.633 131.751 195.291C132.409 194.333 132.793 193.216 132.862 192.06C132.931 190.903 132.683 189.749 132.145 188.72C131.606 187.692 130.796 186.827 129.802 186.218C128.808 185.609 127.666 185.278 126.497 185.26C127.259 184.318 127.737 183.181 127.876 181.981C128.014 180.781 127.808 179.566 127.281 178.477C126.754 177.388 125.927 176.469 124.896 175.826C123.865 175.183 122.671 174.841 121.453 174.841C120.234 174.841 119.041 175.183 118.01 175.826C116.978 176.469 116.152 177.388 115.624 178.477C115.097 179.566 114.891 180.781 115.03 181.981C115.168 183.181 115.646 184.318 116.408 185.26H116.018C114.829 185.262 113.665 185.588 112.651 186.202C111.637 186.817 110.813 187.696 110.27 188.743C109.726 189.791 109.484 190.966 109.569 192.141C109.655 193.316 110.065 194.445 110.754 195.405C109.651 196.145 108.721 197.111 108.025 198.238C107.329 199.364 106.883 200.624 106.719 201.935C106.554 203.246 106.673 204.576 107.069 205.837C107.465 207.099 108.127 208.261 109.013 209.248C109.899 210.235 110.986 211.022 112.204 211.559C113.421 212.095 114.74 212.367 116.073 212.357C117.405 212.347 118.719 212.055 119.928 211.5C121.137 210.945 122.213 210.141 123.083 209.141C123.473 217.532 123.154 225.941 122.13 234.28H94.2768V224.684C94.2768 224.588 94.2386 224.497 94.1706 224.43C94.1027 224.362 94.0105 224.324 93.9144 224.324V224.324L89.2707 220.023V204.944C89.2707 204.848 89.2325 204.757 89.1646 204.69C89.0966 204.622 89.0044 204.584 88.9083 204.584C88.8122 204.584 88.7201 204.622 88.6521 204.69C88.5842 204.757 88.546 204.848 88.546 204.944H31.3907C31.3907 204.848 31.3525 204.757 31.2846 204.69C31.2166 204.622 31.1245 204.584 31.0284 204.584C30.9323 204.584 30.8401 204.622 30.7721 204.69C30.7042 204.757 30.666 204.848 30.666 204.944V218.283L31.3907 219.181V215.277H88.5364V219.352H31.5337L33.0308 221.101L36.0345 224.324H35.9105C36.1298 224.57 36.3491 224.788 36.5684 225.024H88.5364V234.261H46.0848C67.7872 253.37 95.1577 264.981 124.084 267.35H146.664C165.023 265.838 182.873 260.6 199.104 251.961C215.336 243.322 229.602 231.466 241.017 217.13ZM202.189 161.805V157.305H218.962V161.805H220.287L218.847 213.802H216.54V218.321H204.611V213.802H202.313L200.883 161.805H202.189ZM165.773 161.805V157.305H182.537V161.805H183.862L182.441 213.802H180.124V218.321H178.837H168.195V213.783H165.888L164.448 161.786L165.773 161.805ZM93.5521 234.28H89.2611V225.043H93.5521V234.28Z" fill="#B2D5E2"/>
<path d="M8.90625 180.259C10.7289 185.196 12.8497 190.02 15.2569 194.705C15.8159 193.345 16.0948 191.888 16.077 190.419C16.0592 188.951 15.7451 187.501 15.1533 186.155C14.5614 184.808 13.7038 183.593 12.6309 182.581C11.558 181.568 10.2916 180.779 8.90625 180.259V180.259Z" fill="#B2D5E2"/>
<path d="M8.46734 179.021C9.5319 177 9.75782 174.648 9.09687 172.464C8.43592 170.281 6.94046 168.441 4.92969 167.336C5.92773 171.306 7.10695 175.201 8.46734 179.021Z" fill="#B2D5E2"/>
<path d="M166.317 89.7936C166.303 89.526 166.303 89.2577 166.317 88.99C166.317 86.9842 167.121 85.0604 168.551 83.642C169.982 82.2237 171.922 81.4268 173.945 81.4268C174.432 81.4258 174.917 81.4733 175.395 81.5686C175.395 81.285 175.395 81.0109 175.395 80.7367C175.417 78.965 175.931 77.2337 176.88 75.7326C177.83 74.2316 179.178 73.0189 180.777 72.2277C182.376 71.4365 184.164 71.0974 185.944 71.2476C187.725 71.3977 189.429 72.0314 190.871 73.0789C191.046 69.985 192.431 67.0808 194.732 64.9828C197.032 62.8847 200.066 61.7579 203.19 61.8416C206.315 61.9252 209.283 63.2127 211.466 65.4308C213.649 67.6489 214.874 70.623 214.881 73.7218C214.881 73.9109 214.881 74.1094 214.881 74.2985C216.213 73.4453 217.752 72.9638 219.337 72.9048C220.921 72.8458 222.493 73.2115 223.885 73.9634C225.278 74.7152 226.441 75.8254 227.251 77.1771C228.061 78.5288 228.488 80.072 228.488 81.6443C228.489 82.6086 228.331 83.5667 228.021 84.4805C228.566 84.3271 229.131 84.2508 229.699 84.2536C231.236 84.2534 232.719 84.8207 233.857 85.8448C234.996 86.8689 235.709 88.2766 235.859 89.7936H166.317Z" fill="white"/>
<path d="M81.8907 52.9986C81.8413 52.5875 81.8158 52.174 81.8145 51.7601C81.8246 48.6885 83.063 45.7462 85.2581 43.5787C87.4533 41.4111 90.4259 40.1953 93.5239 40.1978C94.2726 40.1987 95.0195 40.2683 95.7552 40.4058C95.7552 39.9898 95.698 39.5549 95.698 39.1295C95.6984 36.3684 96.4765 33.6623 97.9447 31.3162C99.4129 28.97 101.513 27.077 104.008 25.8504C106.503 24.6239 109.294 24.1126 112.066 24.3742C114.838 24.6358 117.482 25.6598 119.699 27.3309C119.965 22.5707 122.092 18.1008 125.628 14.8694C129.163 11.638 133.829 9.89941 138.636 10.0224C143.443 10.1454 148.013 12.1203 151.376 15.5282C154.738 18.9361 156.63 23.5088 156.648 28.2763C156.648 28.5693 156.648 28.8719 156.648 29.2217C159.016 27.7001 161.804 26.9489 164.623 27.0727C167.442 27.1965 170.152 28.1892 172.375 29.9124C174.598 31.6356 176.223 34.0035 177.024 36.6861C177.825 39.3686 177.763 42.2321 176.844 44.8776C178.186 44.505 179.593 44.4282 180.967 44.6527C182.342 44.8772 183.65 45.3975 184.799 46.177C185.949 46.9565 186.913 47.9763 187.622 49.1646C188.332 50.3529 188.77 51.681 188.907 53.0553L81.8907 52.9986Z" fill="white"/>
<path d="M39.1245 87.6949C39.1102 87.4682 39.1102 87.2409 39.1245 87.0142C39.1232 86.1729 39.2893 85.3396 39.6131 84.562C39.937 83.7844 40.4123 83.0777 41.0119 82.4823C41.6114 81.887 42.3235 81.4147 43.1073 81.0925C43.8912 80.7702 44.7314 80.6044 45.5799 80.6044C45.9958 80.6033 46.4109 80.6413 46.8196 80.7178C46.8051 80.4817 46.8051 80.2449 46.8196 80.0088C46.8204 78.4843 47.2505 76.9903 48.0615 75.6951C48.8725 74.3999 50.0322 73.3549 51.4098 72.6778C52.7875 72.0008 54.3285 71.7185 55.8592 71.8629C57.3899 72.0073 58.8496 72.5725 60.0738 73.4949C60.1854 70.8382 61.3466 68.3316 63.3066 66.5166C65.2667 64.7016 67.8681 63.7239 70.5491 63.7947C73.2301 63.8654 75.7755 64.979 77.6353 66.8948C79.4951 68.8106 80.5202 71.3749 80.4891 74.0338C80.4891 74.1945 80.4891 74.3553 80.4891 74.5254C81.6208 73.7994 82.929 73.3894 84.276 73.3386C85.6229 73.2879 86.9588 73.5982 88.1428 74.2369C89.3268 74.8756 90.3152 75.8191 91.0038 76.968C91.6924 78.1169 92.0557 79.4287 92.0556 80.7651C92.0559 81.585 91.9206 82.3994 91.6551 83.1759C92.3969 82.9656 93.1763 82.9199 93.938 83.0421C94.6996 83.1642 95.4248 83.4512 96.062 83.8825C96.6991 84.3139 97.2326 84.8791 97.6246 85.538C98.0166 86.1969 98.2574 86.9333 98.3299 87.6949H39.1245Z" fill="white"/>
<path d="M197.374 160.359C195.123 161.145 192.701 161.325 190.356 160.878C189.546 160.708 189.403 159.753 190.089 159.545C192.95 158.685 194.237 157.078 186.199 157.787C184.454 157.948 182.89 157.91 181.717 158.118H181.507L148.915 156.577L133.659 126.863C133.356 126.276 132.939 125.753 132.432 125.326C131.926 124.898 131.339 124.574 130.706 124.371C130.073 124.168 129.406 124.091 128.742 124.144C128.079 124.197 127.433 124.379 126.841 124.679C126.248 124.98 125.722 125.393 125.29 125.895C124.859 126.397 124.532 126.979 124.327 127.607C124.123 128.234 124.045 128.896 124.098 129.553C124.152 130.211 124.335 130.851 124.638 131.439L141.287 163.734L141.382 163.942C141.794 164.738 142.429 165.4 143.21 165.85C143.991 166.299 144.886 166.516 145.788 166.475L181.545 164.802C181.953 164.779 182.353 164.686 182.728 164.528C185.063 165.687 187.618 166.345 190.227 166.461C192.836 166.576 195.44 166.146 197.87 165.199C207.301 161.209 199.453 159.602 197.374 160.359Z" fill="#E3B6B9"/>
<path d="M139.923 136.818L134.106 126.466C133.741 125.814 133.249 125.24 132.66 124.777C132.07 124.313 131.395 123.969 130.671 123.765C129.948 123.56 129.191 123.499 128.444 123.584C127.696 123.67 126.973 123.901 126.316 124.263C125.659 124.626 125.08 125.113 124.612 125.697C124.145 126.282 123.798 126.952 123.592 127.669C123.385 128.386 123.324 129.137 123.41 129.877C123.496 130.618 123.729 131.335 124.094 131.987L129.92 142.386L139.923 136.818Z" fill="#E2A900"/>
<path d="M167.146 231.216L149.411 192.587H129.51L150.641 237.475L152.901 301.46H165.516L167.146 231.216Z" fill="#302169"/>
<path d="M133.992 121.701L126.545 120.755C126.545 120.755 119.288 121.067 119.584 127.884C120.099 139.654 121.443 162.977 121.872 172.63C122.179 179.297 121.859 185.978 120.919 192.587H153.206C150.507 138.274 133.992 121.701 133.992 121.701Z" fill="#A293BF"/>
<path d="M123.37 116.851L124.037 121.294L133.401 126.475L134.497 122.259L133.048 115.026L123.37 116.851Z" fill="#BB684E"/>
<path d="M123.837 90.3041C130.512 88.8482 134.269 91.2968 137.692 101.942C140.696 111.283 139.227 114.989 132.285 116.492C132.285 116.492 126.259 117.626 126.23 117.551C122.759 117.087 118.325 115.386 116.247 105.96C113.901 95.3809 116.714 91.8829 123.837 90.3041Z" fill="#C1755D"/>
<path d="M119.203 87.5908C121.735 87.0246 124.358 86.9843 126.906 87.4724C129.455 87.9605 131.874 88.9665 134.011 90.427C135.327 91.3724 135.699 89.4816 135.699 89.4816C135.699 89.4816 139.084 93.9156 134.955 94.7853C132.685 94.8297 130.434 95.2154 128.28 95.9293C125.42 96.8747 126.373 103.596 126.459 104.258C126.65 105.761 126.85 106.149 126.116 106.395C125.82 106.489 125.515 106.575 125.258 106.669C125.167 106.707 125.07 106.725 124.972 106.724C124.874 106.723 124.777 106.702 124.688 106.662C124.598 106.622 124.518 106.564 124.452 106.492C124.386 106.42 124.336 106.336 124.304 106.244C123.551 104.977 122.397 104.296 121.176 105.166C120.385 105.761 121.482 107.057 122.569 108.078C123.656 109.099 126.249 115.206 125.63 117.532C123.111 117.689 120.6 117.12 118.401 115.894C116.201 114.667 114.406 112.836 113.233 110.621C107.741 100.297 109.162 89.9165 119.203 87.5908Z" fill="#003A6A"/>
<path d="M122.464 192.521C122.464 192.521 122.464 204.168 129.453 209.538V209.652C129.453 209.652 125.887 247.581 125.734 248.205L102.697 290.937L113.186 294.984C113.186 294.984 141.515 252.1 141.697 251.495C141.697 251.495 152.186 210.332 152.186 209.68V192.663L122.464 192.521Z" fill="#302169"/>
<path d="M202.695 153.4C202.697 154.797 202.422 156.181 201.884 157.473C201.347 158.764 200.558 159.938 199.562 160.926C198.567 161.915 197.384 162.7 196.083 163.235C194.781 163.77 193.386 164.046 191.977 164.046H162.169C159.326 164.046 156.599 162.926 154.587 160.934C152.576 158.941 151.444 156.238 151.442 153.419V114.412C151.443 113.016 151.722 111.635 152.261 110.346C152.801 109.057 153.592 107.887 154.588 106.901C155.584 105.915 156.766 105.133 158.067 104.6C159.368 104.067 160.762 103.794 162.169 103.795H191.977C193.384 103.794 194.777 104.068 196.078 104.601C197.378 105.134 198.56 105.915 199.555 106.901C200.55 107.887 201.34 109.058 201.879 110.347C202.417 111.636 202.695 113.017 202.695 114.412V153.4Z" fill="white"/>
<path d="M174.288 128.829C171.723 124.235 165.544 115.906 169.683 110.517C173.354 105.79 181.717 108.806 180.763 115.168C185.092 110.375 192.797 114.818 191.452 120.661C189.917 127.279 179.504 127.855 174.288 128.829V128.829Z" fill="#C75984"/>
<path d="M169.988 113.807C170.246 111.916 173.049 108.673 175.71 110.243C176.587 110.763 176.53 112.001 175.624 112.086C172.868 112.332 171.562 113.76 171.686 115.112C171.81 116.464 169.578 116.775 169.988 113.807Z" fill="white"/>
<path d="M192.511 103.795V97.4041C192.511 96.9589 192.422 96.518 192.25 96.1068C192.078 95.6955 191.826 95.322 191.508 95.0076C191.19 94.6932 190.812 94.4441 190.397 94.2745C189.982 94.105 189.537 94.0184 189.088 94.0196H165.049C164.601 94.0196 164.157 94.1072 163.743 94.2772C163.328 94.4473 162.952 94.6966 162.635 95.0109C162.318 95.3252 162.067 95.6983 161.895 96.1089C161.724 96.5196 161.635 96.9597 161.635 97.4041V103.795H192.511Z" fill="#302169"/>
<path d="M165.526 102.661C165.336 102.658 165.154 102.581 165.02 102.447C164.886 102.312 164.811 102.131 164.811 101.942V96.0521C164.811 95.8641 164.886 95.6837 165.02 95.5508C165.154 95.4178 165.336 95.3431 165.526 95.3431C165.716 95.3431 165.898 95.4178 166.032 95.5508C166.166 95.6837 166.242 95.8641 166.242 96.0521V101.942C166.243 102.036 166.226 102.129 166.19 102.216C166.155 102.303 166.102 102.383 166.036 102.45C165.969 102.516 165.89 102.569 165.802 102.606C165.715 102.642 165.621 102.661 165.526 102.661V102.661Z" fill="#7779B1"/>
<path d="M168.826 102.661C168.731 102.661 168.637 102.642 168.549 102.606C168.462 102.569 168.383 102.516 168.316 102.45C168.25 102.383 168.197 102.303 168.162 102.216C168.126 102.129 168.109 102.036 168.11 101.942V96.0521C168.11 95.8641 168.185 95.6837 168.32 95.5508C168.454 95.4178 168.636 95.3431 168.826 95.3431C169.016 95.3431 169.199 95.4175 169.335 95.5502C169.471 95.6829 169.548 95.8632 169.551 96.0521V101.942C169.551 102.133 169.474 102.315 169.338 102.45C169.202 102.585 169.018 102.661 168.826 102.661V102.661Z" fill="#7779B1"/>
<path d="M172.125 102.661C172.03 102.661 171.936 102.642 171.849 102.606C171.761 102.569 171.682 102.516 171.615 102.45C171.549 102.383 171.496 102.303 171.461 102.216C171.426 102.129 171.408 102.036 171.409 101.942V96.0521C171.409 95.8641 171.485 95.6837 171.619 95.5508C171.753 95.4178 171.935 95.3431 172.125 95.3431C172.315 95.3431 172.497 95.4178 172.631 95.5508C172.765 95.6837 172.841 95.8641 172.841 96.0521V101.942C172.842 102.036 172.824 102.129 172.789 102.216C172.753 102.303 172.701 102.383 172.634 102.45C172.568 102.516 172.488 102.569 172.401 102.606C172.314 102.642 172.22 102.661 172.125 102.661V102.661Z" fill="#7779B1"/>
<path d="M175.424 102.661C175.329 102.661 175.235 102.642 175.148 102.606C175.06 102.569 174.981 102.516 174.914 102.45C174.848 102.383 174.795 102.303 174.76 102.216C174.724 102.129 174.707 102.036 174.708 101.942V96.0521C174.708 95.8641 174.783 95.6837 174.918 95.5508C175.052 95.4178 175.234 95.3431 175.424 95.3431C175.614 95.3431 175.796 95.4178 175.93 95.5508C176.064 95.6837 176.139 95.8641 176.139 96.0521V101.942C176.139 102.131 176.064 102.312 175.93 102.447C175.796 102.581 175.614 102.658 175.424 102.661Z" fill="#7779B1"/>
<path d="M178.723 102.661C178.531 102.661 178.346 102.585 178.21 102.45C178.074 102.315 177.998 102.133 177.998 101.942V96.0521C178.001 95.8632 178.078 95.6829 178.214 95.5502C178.35 95.4175 178.533 95.3431 178.723 95.3431C178.913 95.3431 179.095 95.4178 179.229 95.5508C179.364 95.6837 179.439 95.8641 179.439 96.0521V101.942C179.44 102.036 179.423 102.129 179.387 102.216C179.352 102.303 179.299 102.383 179.233 102.45C179.166 102.516 179.087 102.569 178.999 102.606C178.912 102.642 178.818 102.661 178.723 102.661V102.661Z" fill="#7779B1"/>
<path d="M182.023 102.661C181.83 102.661 181.646 102.585 181.51 102.45C181.374 102.315 181.297 102.133 181.297 101.942V96.0522C181.318 95.877 181.402 95.7154 181.535 95.5981C181.668 95.4808 181.84 95.416 182.018 95.416C182.196 95.416 182.367 95.4808 182.5 95.5981C182.633 95.7154 182.718 95.877 182.738 96.0522V101.942C182.738 102.131 182.663 102.312 182.529 102.447C182.395 102.581 182.213 102.658 182.023 102.661V102.661Z" fill="#7779B1"/>
<path d="M185.311 102.661C185.217 102.661 185.123 102.642 185.035 102.606C184.948 102.569 184.869 102.516 184.802 102.45C184.736 102.383 184.683 102.303 184.648 102.216C184.613 102.129 184.595 102.036 184.596 101.942V96.0521C184.596 95.8641 184.672 95.6837 184.806 95.5508C184.94 95.4178 185.122 95.3431 185.311 95.3431C185.502 95.3431 185.685 95.4175 185.82 95.5502C185.956 95.6829 186.034 95.8632 186.036 96.0521V101.942C186.036 102.133 185.96 102.315 185.824 102.45C185.688 102.585 185.504 102.661 185.311 102.661V102.661Z" fill="#7779B1"/>
<path d="M188.611 102.661C188.516 102.661 188.423 102.642 188.335 102.606C188.248 102.569 188.169 102.516 188.102 102.45C188.036 102.383 187.983 102.303 187.948 102.216C187.912 102.129 187.895 102.036 187.896 101.942V96.0521C187.896 95.8641 187.971 95.6837 188.106 95.5508C188.24 95.4178 188.422 95.3431 188.611 95.3431C188.802 95.3431 188.985 95.4175 189.12 95.5502C189.256 95.6829 189.333 95.8632 189.336 96.0521V101.942C189.336 102.133 189.26 102.315 189.124 102.45C188.988 102.585 188.803 102.661 188.611 102.661Z" fill="#7779B1"/>
<path d="M163.59 141.583C160.033 137.688 152.147 130.975 154.893 124.783C157.382 119.328 166.221 120.406 166.755 126.816C169.873 121.143 178.389 123.762 178.427 129.756C178.427 136.525 168.434 139.456 163.59 141.583Z" fill="#302169"/>
<path d="M155.952 127.922C155.761 126.031 157.754 122.249 160.72 123.195C161.673 123.497 161.921 124.726 161.063 125C158.431 125.861 157.478 127.553 157.907 128.848C158.336 130.143 156.229 130.956 155.952 127.922Z" fill="white"/>
<path d="M188.191 144.135C183.223 142.292 173.068 139.957 172.677 133.197C172.343 127.213 180.706 124.131 184.12 129.576C184.272 123.157 193.035 121.559 195.848 126.863C199.004 132.876 191.491 140.032 188.172 144.135H188.191Z" fill="#A293BF"/>
<path d="M175.061 135.494C174.031 133.925 174.022 129.623 177.054 129.113C178.055 128.943 178.837 129.917 178.208 130.559C176.301 132.526 176.215 134.464 177.188 135.409C178.16 136.355 176.701 138.019 175.061 135.494Z" fill="white"/>
<path d="M169.406 159.744C164.514 157.721 154.464 155.017 154.34 148.219C154.245 142.226 162.712 139.474 165.945 145.052C166.345 138.633 175.165 137.376 177.769 142.793C180.677 148.91 172.886 155.783 169.406 159.744V159.744Z" fill="#96C5CE"/>
<path d="M156.629 150.611C155.676 149.004 155.828 144.693 158.889 144.306C159.842 144.173 160.624 145.185 159.966 145.799C157.954 147.69 157.821 149.581 158.765 150.611C159.709 151.642 158.174 153.202 156.629 150.611Z" fill="white"/>
<path d="M183.309 160.056C180.744 155.452 174.565 147.132 178.694 141.743C182.375 137.016 190.737 140.032 189.774 146.385C194.113 141.602 201.818 146.036 200.473 151.878C198.928 158.496 188.516 159.073 183.309 160.056V160.056Z" fill="#5D2E84"/>
<path d="M178.999 145.033C179.257 143.143 182.07 139.891 184.721 141.46C185.588 141.98 185.541 143.228 184.635 143.303C181.879 143.559 180.563 144.986 180.687 146.329C180.811 147.671 178.589 147.974 178.999 145.033Z" fill="white"/>
<path d="M195.009 163.015C192.761 163.804 190.343 163.987 188 163.544C187.171 163.365 187.047 162.419 187.733 162.202C190.594 161.351 191.872 159.734 183.843 160.453C182.079 160.614 180.525 160.566 179.352 160.784H179.152L146.56 159.243L131.303 129.529C130.667 128.383 129.607 127.528 128.346 127.144C127.085 126.76 125.723 126.878 124.549 127.473C123.374 128.068 122.48 129.094 122.055 130.332C121.63 131.569 121.708 132.923 122.273 134.105L138.912 166.409L139.017 166.617C139.429 167.415 140.065 168.077 140.849 168.525C141.632 168.973 142.529 169.187 143.432 169.141L179.19 167.468C179.591 167.448 179.986 167.355 180.353 167.194C182.689 168.353 185.246 169.014 187.856 169.131C190.466 169.248 193.072 168.82 195.505 167.874C204.935 163.885 197.107 162.268 195.009 163.015Z" fill="#C1755D"/>
<path d="M137.558 139.465L131.732 129.066C130.992 127.751 129.756 126.781 128.295 126.369C126.834 125.958 125.268 126.139 123.942 126.872C122.615 127.606 121.637 128.832 121.222 130.28C120.807 131.729 120.99 133.281 121.73 134.596L127.556 144.996L137.558 139.465Z" fill="#A293BF"/>
<path d="M161.921 301.479H153.187V307.558H174.26L161.921 301.479Z" fill="#A293BF"/>
<path d="M111.202 294.199L103.326 291.164L100.608 296.6L119.498 304.523L111.202 294.199Z" fill="#A293BF"/>
</svg>
