<svg width="688" height="550" viewBox="0 0 688 550" fill="none" xmlns="http://www.w3.org/2000/svg">
<path d="M358.173 20.9987C357.843 21.9593 357.644 22.9008 357.575 23.8232C357.385 26.3905 358.525 28.0768 360.995 28.8821C361.84 29.1576 362.852 29.2616 364.031 29.1943C365.214 29.1177 365.995 29.1415 366.376 29.2656C366.766 29.3928 367.025 29.6158 367.153 29.9349C367.281 30.2539 367.289 30.575 367.178 30.8983C366.928 31.6279 365.93 32.1139 364.184 32.3562C362.765 32.5507 361.313 32.4058 359.827 31.9215L359.395 31.7807C358.012 31.3296 356.871 30.6853 355.971 29.8476C354.258 28.2517 353.477 26.3024 353.627 23.9996C353.725 22.5423 354.053 21.0008 354.611 19.3752C355.734 16.1055 357.3 13.8433 359.311 12.5885C360.218 12.0216 361.354 11.6732 362.72 11.5435C364.096 11.4168 365.35 11.5381 366.482 11.9074L366.9 12.0436C368.432 12.5431 369.562 13.1476 370.288 13.857C371.015 14.5665 371.492 15.2664 371.72 15.9568C371.805 16.2207 371.77 16.579 371.614 17.0315C371.459 17.4841 371.201 17.8004 370.839 17.9805C370.478 18.1606 370.098 18.1855 369.699 18.0553C369.309 17.9282 368.61 17.4537 367.601 16.632C366.596 15.801 365.722 15.2644 364.979 15.0222C364.236 14.78 363.513 14.7237 362.807 14.8532C362.111 14.9858 361.523 15.2561 361.042 15.6642C360.071 16.4774 359.115 18.2555 358.173 20.9987ZM374.97 34.3633L374.756 34.9868C374.525 35.661 374.243 36.0312 373.91 36.0974C373.59 36.1574 373.082 36.0739 372.386 35.8468L371.648 35.6062C370.311 35.1702 370.001 33.9086 370.717 31.8212L370.793 31.5995L371.191 30.7123C371.311 30.4536 371.375 30.3103 371.385 30.2826L371.593 29.8574C371.814 29.3646 372.038 28.7856 372.267 28.1206L372.952 26.1256L373.137 25.6313L373.66 24.1073L373.94 23.336L374.464 21.812L374.654 21.304L375.177 19.78L375.367 19.2719C375.624 18.5237 375.817 17.842 375.945 17.2267C376.074 16.6113 376.213 16.0866 376.362 15.6525C376.514 15.2091 376.71 14.9239 376.95 14.7967C377.202 14.6632 377.598 14.6843 378.136 14.8599L378.874 15.1006C379.707 15.3823 380.071 15.8246 379.967 16.4275C379.916 16.6982 379.539 17.8542 378.838 19.8954L378.734 20.1541C378.677 20.3204 378.62 20.4866 378.563 20.6529L378.463 20.8977C378.406 21.064 378.349 21.2302 378.292 21.3965L378.017 22.154L377.669 23.1653L377.565 23.424L377.132 24.6848L377.028 24.9435L376.595 26.2042L376.319 26.9617L375.791 28.4996L375.481 29.4923C375.25 30.1666 375.12 31.1 375.093 32.2927C375.075 33.4884 375.034 34.1786 374.97 34.3633ZM384.227 19.3108C384.293 19.209 384.362 19.0519 384.435 18.8395C384.508 18.6271 384.694 18.4463 384.993 18.2973C385.305 18.1421 385.683 18.1371 386.129 18.2824L386.519 18.3635L386.839 18.4679L386.904 18.5045L387.322 18.6868C387.356 18.7082 387.396 18.7264 387.442 18.7415C388.111 18.9595 388.318 19.4379 388.064 20.1768L387.973 20.5784L387.864 20.897L387.745 21.1512L387.599 21.4424C387.345 22.1813 386.606 22.3509 385.38 21.9513L385.255 21.9105L385.19 21.8739L384.717 21.6734C384.673 21.649 384.633 21.6308 384.596 21.6187C383.937 21.4037 383.721 20.9638 383.95 20.2988C383.963 20.2003 383.976 20.1327 383.988 20.0957L384.046 19.8372L384.227 19.3108ZM379.786 38.2442L379.424 38.1262C378.746 37.9052 378.364 37.6781 378.279 37.4449C378.143 37.0614 378.206 36.4864 378.469 35.7197C378.732 34.9531 379.004 34.2817 379.284 33.7056C379.574 33.1325 379.736 32.7951 379.771 32.6935L379.909 32.3379C379.95 32.2178 379.991 32.0977 380.033 31.9776L380.17 31.622L380.803 29.7793L381.007 29.2297L381.259 28.4954L381.436 27.9367C381.477 27.8166 381.518 27.6965 381.559 27.5764L381.669 27.2117L382.068 24.8769L382.182 24.5444C382.334 24.101 382.522 23.8542 382.746 23.8039C382.979 23.7567 383.393 23.8299 383.987 24.0237L384.53 24.2008C385.403 24.4853 385.836 24.8935 385.829 25.4252C385.827 25.7019 385.451 26.9301 384.703 29.1099C383.955 31.2896 383.536 32.5549 383.446 32.9058C383.36 33.2473 383.253 33.8134 383.126 34.6039C383.012 35.3882 382.907 35.9189 382.812 36.196L382.721 36.5515L382.545 37.0641C382.253 37.9138 381.942 38.3979 381.613 38.5164C381.286 38.6256 380.677 38.5349 379.786 38.2442ZM390.596 34.4515C390.596 34.4515 390.525 34.69 390.382 35.1671C390.045 36.1462 390.015 37.0454 390.292 37.8646C390.571 38.6746 391.096 39.2053 391.867 39.4565L392.257 39.5837C393.361 39.9439 394.29 39.8256 395.042 39.2287C395.538 38.8358 396.037 37.9098 396.538 36.4504L396.995 35.1204L397.028 34.9773L397.148 34.5848L397.296 34.0631C397.581 33.2319 397.611 32.5586 397.385 32.0434C397.034 31.2614 396.478 30.7463 395.717 30.498L395.313 30.3664C394.412 30.0727 393.574 30.1845 392.798 30.7016C392.031 31.2218 391.454 32.0453 391.067 33.1721L390.939 33.454L390.73 34.0175L390.63 34.3084L390.596 34.4515ZM393.801 42.1209C393.746 42.1027 393.528 42.1191 393.149 42.1702C392.774 42.212 392.375 42.2309 391.953 42.2269C391.54 42.2259 390.926 42.0921 390.109 41.8257C388.493 41.299 387.406 40.2256 386.847 38.6056C386.647 38.0164 386.561 37.2285 386.59 36.2418C386.619 35.255 386.821 34.2167 387.195 33.1268L387.428 32.448C388.151 30.3421 389.234 28.8568 390.677 27.9921C392.12 27.1274 393.737 26.9872 395.529 27.5715C396.189 27.7864 396.691 28.0221 397.036 28.2785C397.395 28.5288 397.786 28.8311 398.212 29.1855C398.637 29.5399 398.873 29.7247 398.92 29.7398C398.966 29.755 399.106 29.7236 399.339 29.6456C399.582 29.5706 399.777 29.5266 399.926 29.5135C400.088 29.4943 400.443 29.574 400.99 29.7526C401.547 29.9342 401.882 30.1923 401.994 30.5267C402.116 30.8642 402.051 31.3978 401.801 32.1275L401.587 32.7509L401.464 33.065L400.588 35.6143L400.465 35.9284L399.266 39.4197L399.143 39.7338L396.955 46.1069L396.659 47.0581L396.445 47.6815L396.135 48.6282C395.936 49.2101 395.733 49.5445 395.528 49.6316C395.328 49.731 394.839 49.6535 394.059 49.3992C393.279 49.1449 392.844 48.8028 392.754 48.373C392.661 47.9524 392.852 47.0494 393.328 45.6639L393.733 44.3941C394.206 43.0179 394.228 42.2601 393.801 42.1209ZM414.647 46.8533C414.336 47.7584 413.963 48.2889 413.527 48.4448C413.101 48.6037 412.642 48.6029 412.15 48.4424C411.667 48.285 411.344 48.1283 411.181 47.9724C411.017 47.8165 410.878 47.622 410.761 47.389C410.658 47.1498 410.587 47.0241 410.55 47.012C410.513 46.9999 409.981 47.0317 408.953 47.1075C407.926 47.1833 406.962 47.0744 406.061 46.7808C405.17 46.4901 404.435 46.0451 403.856 45.4455C402.779 44.3137 402.48 42.7323 402.961 40.7014C403.111 40.0829 403.683 38.3281 404.675 35.4372L405.628 32.5279L405.747 32.1816C405.966 31.5443 406.502 31.3649 407.356 31.6434L407.691 31.7524C408.545 32.0309 408.972 32.5605 408.972 33.3411C408.973 33.6393 408.526 35.0907 407.632 37.6953C406.741 40.2907 406.315 41.908 406.353 42.5471C406.411 43.5518 406.951 44.2207 407.972 44.5537C408.585 44.7535 409.163 44.7829 409.707 44.6419C410.263 44.4947 410.712 44.2558 411.053 43.9252C411.649 43.3598 412.273 42.1303 412.923 40.2369L413.198 39.5255L413.588 38.4356C414.206 36.6345 414.681 35.5672 415.013 35.2336C415.453 34.7919 416.184 34.7375 417.206 35.0705C417.707 35.234 417.935 35.6216 417.89 36.2335C417.866 36.5748 417.586 37.5259 417.05 39.0868L414.889 46.1467L414.647 46.8533ZM428.934 44.1635L429.015 43.928C429.266 43.1983 429.218 42.5408 428.872 41.9555C428.526 41.3702 428.009 40.9655 427.322 40.7415L426.974 40.628C426.166 40.3646 425.395 40.4161 424.66 40.7824C423.925 41.1488 423.423 41.7245 423.153 42.5096L423.077 42.7312C422.991 42.9806 423.25 43.2037 423.854 43.4005L424.564 43.632L424.652 43.6454L427.652 44.4696L427.968 44.5418C428.47 44.7052 428.792 44.5792 428.934 44.1635ZM426.755 46.8114C423.757 45.8336 422.149 45.6588 421.934 46.2868C421.661 47.0812 421.738 47.8046 422.164 48.4571C422.59 49.1097 423.249 49.5812 424.141 49.8719C425.032 50.1625 425.93 50.327 426.836 50.3656C427.745 50.3949 428.343 50.4564 428.631 50.5503C428.928 50.6471 429.133 50.8474 429.245 51.1512C429.37 51.4487 429.352 51.8329 429.19 52.304C429.032 52.7658 428.359 53.0704 427.173 53.2177C425.996 53.368 424.869 53.2675 423.792 52.9164L422.775 52.5849C421.977 52.3245 421.188 51.8874 420.407 51.2735C418.877 50.0763 418.143 48.5632 418.203 46.7342C418.232 45.7167 418.408 44.7369 418.732 43.7948L418.96 43.1298C420.121 39.7493 422.073 37.9415 424.818 37.7066C425.839 37.6185 426.916 37.7591 428.049 38.1285C429.971 38.7551 431.268 39.7122 431.941 40.9997C432.225 41.5546 432.385 42.2638 432.418 43.1273C432.462 43.9938 432.372 44.7504 432.15 45.3969L431.831 46.3252C431.559 47.1195 431.092 47.5475 430.43 47.6092C429.782 47.6647 428.557 47.3987 426.755 46.8114ZM449.495 52.0692L451.626 52.764C452.508 53.0516 452.994 53.0661 453.083 52.8075L453.111 52.7243C453.469 51.6806 453.581 49.3857 453.446 45.8395C453.42 45.1635 453.366 44.8118 453.282 44.7846C453.245 44.7725 452.978 45.0397 452.48 45.5862C449.912 48.4358 448.471 50.3178 448.157 51.2322C448.074 51.4724 448.521 51.7514 449.495 52.0692ZM456.409 62.242C456.241 62.7315 455.702 62.8279 454.792 62.5312C453.882 62.2346 453.32 61.7379 453.105 61.0413C452.975 60.6086 452.912 59.8436 452.917 58.7463C452.935 57.6428 452.893 56.9669 452.793 56.7184C452.622 56.3136 451.961 55.9234 450.81 55.5481C448.47 54.7852 446.929 54.4624 446.187 54.5799C445.783 54.6433 445.199 55.1564 444.435 56.1192C443.671 57.0819 443.156 57.6485 442.891 57.8188C442.389 58.1379 441.716 58.1597 440.871 57.8842C440.035 57.6118 439.684 57.2816 439.817 56.8936C439.95 56.5057 441.728 54.0657 445.149 49.5737C448.57 45.0816 450.345 42.7691 450.473 42.6363C451.689 41.4101 452.484 40.7192 452.857 40.5637C453.24 40.4112 453.84 40.4681 454.657 40.7345C455.471 41.0102 455.978 41.2935 456.177 41.5845C456.662 42.3074 456.901 44.722 456.896 48.8282C456.899 52.9375 456.855 55.4703 456.764 56.4266C456.677 57.3737 456.607 58.5374 456.557 59.9176C456.515 61.3009 456.466 62.0757 456.409 62.242ZM463.74 58.3006C463.74 58.3006 463.668 58.5391 463.525 59.0162C463.189 59.9953 463.159 60.8944 463.435 61.7137C463.715 62.5237 464.24 63.0543 465.01 63.3056L465.4 63.4328C466.505 63.793 467.434 63.6747 468.186 63.0777C468.682 62.6849 469.181 61.7589 469.682 60.2995L470.138 58.9695L470.172 58.8264L470.291 58.4339L470.439 57.9122C470.725 57.081 470.755 56.4077 470.529 55.8925C470.178 55.1105 469.622 54.5954 468.861 54.3471L468.457 54.2154C467.556 53.9218 466.718 54.0335 465.941 54.5507C465.174 55.0708 464.597 55.8943 464.21 57.0212L464.083 57.303L463.874 57.8665L463.774 58.1575L463.74 58.3006ZM466.945 65.9699C466.889 65.9518 466.672 65.9682 466.293 66.0193C465.917 66.0611 465.519 66.08 465.097 66.076C464.684 66.0749 464.069 65.9412 463.252 65.6748C461.637 65.1481 460.55 64.0747 459.991 62.4546C459.79 61.8655 459.705 61.0776 459.734 60.0909C459.763 59.1041 459.965 58.0658 460.339 56.9759L460.572 56.297C461.295 54.1912 462.378 52.7059 463.821 51.8412C465.264 50.9765 466.881 50.8363 468.673 51.4205C469.332 51.6355 469.835 51.8712 470.18 52.1276C470.538 52.3779 470.93 52.6802 471.355 53.0346C471.781 53.389 472.017 53.5738 472.063 53.5889C472.11 53.6041 472.25 53.5726 472.483 53.4946C472.725 53.4197 472.921 53.3757 473.07 53.3626C473.232 53.3434 473.586 53.4231 474.134 53.6017C474.691 53.7833 475.026 54.0414 475.138 54.3758C475.26 54.7133 475.195 55.2469 474.945 55.9765L474.731 56.6L474.607 56.9141L473.732 59.4633L473.609 59.7774L472.41 63.2688L472.286 63.5829L470.098 69.956L469.803 70.9072L469.589 71.5306L469.279 72.4773C469.079 73.0591 468.877 73.3936 468.671 73.4807C468.472 73.5801 467.982 73.5026 467.202 73.2483C466.423 72.994 465.988 72.6519 465.898 72.2221C465.805 71.8015 465.996 70.8984 466.472 69.513L466.877 68.2432C467.349 66.8669 467.372 66.1092 466.945 65.9699ZM487.79 70.7024C487.479 71.6075 487.106 72.138 486.671 72.2939C486.245 72.4527 485.785 72.452 485.293 72.2915C484.811 72.1341 484.488 71.9774 484.324 71.8215C484.161 71.6655 484.021 71.4711 483.905 71.2381C483.801 70.9988 483.731 70.8732 483.694 70.8611C483.657 70.849 483.124 70.8808 482.097 70.9566C481.07 71.0324 480.106 70.9235 479.205 70.6298C478.314 70.3392 477.579 69.8941 477 69.2946C475.922 68.1628 475.624 66.5814 476.105 64.5505C476.255 63.932 476.826 62.1772 477.819 59.2862L478.772 56.377L478.89 56.0307C479.109 55.3934 479.646 55.214 480.5 55.4925L480.834 55.6015C481.688 55.88 482.116 56.4096 482.116 57.1902C482.117 57.4884 481.67 58.9397 480.776 61.5444C479.885 64.1398 479.458 65.7571 479.497 66.3962C479.555 67.4009 480.094 68.0698 481.116 68.4028C481.728 68.6026 482.307 68.632 482.851 68.491C483.407 68.3437 483.856 68.1049 484.196 67.7743C484.793 67.2089 485.417 65.9794 486.067 64.086L486.342 63.3746L486.732 62.2847C487.35 60.4836 487.825 59.4162 488.156 59.0826C488.597 58.6409 489.328 58.5866 490.349 58.9196C490.851 59.0831 491.079 59.4707 491.034 60.0826C491.01 60.4239 490.73 61.375 490.194 62.9359L488.033 69.9958L487.79 70.7024ZM496.979 56.0743C497.045 55.9726 497.114 55.8155 497.187 55.603C497.26 55.3906 497.446 55.2099 497.745 55.0609C498.056 54.9056 498.435 54.9007 498.88 55.046L499.271 55.127L499.591 55.2315L499.656 55.268L500.073 55.4504C500.107 55.4717 500.147 55.49 500.194 55.5051C500.862 55.7231 501.07 56.2015 500.816 56.9404L500.725 57.3419L500.615 57.6606L500.497 57.9148L500.35 58.2059C500.097 58.9448 499.357 59.1145 498.132 58.7149L498.006 58.674L497.941 58.6375L497.468 58.437C497.425 58.4126 497.385 58.3943 497.348 58.3822C496.688 58.1673 496.473 57.7273 496.701 57.0623C496.714 56.9639 496.727 56.8962 496.74 56.8593L496.798 56.6008L496.979 56.0743ZM492.537 75.0078L492.175 74.8897C491.497 74.6687 491.116 74.4416 491.031 74.2085C490.894 73.825 490.957 73.2499 491.221 72.4833C491.484 71.7167 491.756 71.0453 492.036 70.4692C492.326 69.896 492.488 69.5587 492.523 69.4571L492.661 69.1014C492.702 68.9813 492.743 68.8613 492.784 68.7412L492.922 68.3855L493.555 66.5429L493.759 65.9932L494.011 65.2589L494.187 64.7002C494.228 64.5801 494.27 64.4601 494.311 64.34L494.421 63.9752L494.82 61.6405L494.934 61.3079C495.086 60.8646 495.274 60.6178 495.498 60.5675C495.731 60.5202 496.144 60.5935 496.739 60.7872L497.282 60.9643C498.155 61.2489 498.587 61.657 498.58 62.1888C498.578 62.4654 498.203 63.6936 497.455 65.8734C496.706 68.0532 496.287 69.3185 496.198 69.6693C496.111 70.0109 496.005 70.577 495.878 71.3675C495.763 72.1518 495.659 72.6825 495.563 72.9596L495.472 73.315L495.296 73.8277C495.005 74.6774 494.694 75.1615 494.364 75.2799C494.038 75.3891 493.429 75.2984 492.537 75.0078ZM518.563 75.2517C519.026 73.9032 519.164 72.8544 518.977 72.1054C518.718 71.0555 518.157 70.3898 517.294 70.1083L516.737 69.9267C515.669 69.5785 514.735 69.7415 513.936 70.4155C513.471 70.8081 513.002 71.6926 512.53 73.0688L511.968 74.7036L511.935 74.8467L511.811 75.253L511.624 75.9316C511.38 76.6428 511.387 77.2975 511.647 77.8955C511.918 78.4873 512.421 78.9028 513.154 79.142L513.544 79.2691C514.482 79.5749 515.375 79.4706 516.222 78.9562C517.083 78.4355 517.698 77.6349 518.069 76.5542L518.197 76.2724L518.411 75.695L518.563 75.2517ZM515.881 82.3418C515.027 82.3921 514.257 82.3053 513.57 82.0813C512.892 81.8603 512.407 81.6506 512.113 81.4523C511.829 81.257 511.549 81.0525 511.271 80.8387C510.993 80.625 510.817 80.506 510.743 80.4818C510.307 80.3395 509.66 81.5152 508.804 84.0091C508.506 84.8773 508.175 85.4368 507.81 85.6875C507.454 85.9413 506.937 85.9577 506.26 85.7367L505.967 85.6414C505.299 85.4234 504.944 85.1639 504.903 84.8629C504.871 84.565 505.164 83.5154 505.783 81.7143L505.892 81.3957L506.015 81.0816L506.458 79.7931L507.831 76.0197L509.562 70.9766C510.602 67.9471 511.143 66.4031 511.184 66.3445C511.469 65.9343 512.155 65.9063 513.241 66.2605C513.659 66.3967 513.969 66.6518 514.171 67.0257C514.376 67.3905 514.534 67.591 514.646 67.6273C514.757 67.6637 515.033 67.6408 515.475 67.5587C516.608 67.3532 517.635 67.4004 518.554 67.7001C521.284 68.5901 522.625 70.3676 522.577 73.0326C522.563 74.0039 522.378 75.0114 522.019 76.0551L521.781 76.7478C521.436 77.7546 520.974 78.6774 520.397 79.5163C519.18 81.2865 517.675 82.2284 515.881 82.3418ZM526.711 81.5595C526.549 82.0305 526.651 82.5003 527.017 82.9687C527.382 83.4371 527.839 83.7606 528.387 83.9392L528.791 84.0709C529.729 84.3767 530.578 84.2787 531.339 83.777C531.672 83.5571 531.994 82.9946 532.305 82.0895L532.376 81.9277L532.495 81.5814C532.695 80.9995 532.484 80.6071 531.862 80.4043L530.734 80.0365C529.712 79.7035 528.869 79.6185 528.204 79.7817C527.539 79.9448 527.122 80.2711 526.954 80.7607L526.778 81.2733C526.752 81.4087 526.73 81.504 526.711 81.5595ZM533.679 77.6383C534.145 76.2806 533.519 75.3217 531.801 74.7616C531.17 74.5558 530.34 74.4185 529.31 74.3499C528.29 74.2843 527.655 74.2106 527.404 74.1289C527.153 74.0471 526.964 73.8467 526.836 73.5277C526.717 73.2118 526.723 72.8644 526.853 72.4857C527.065 71.8669 527.603 71.5031 528.467 71.3943C529.675 71.2438 531.012 71.4077 532.479 71.8861L532.827 71.9996C535.213 72.7776 536.681 74.0058 537.23 75.6843C537.442 76.3287 537.485 77.0308 537.358 77.7906C537.235 78.5411 536.869 79.8031 536.26 81.5765C535.654 83.3406 535.289 84.598 535.166 85.3485C535.042 86.0991 534.898 86.7145 534.733 87.1948C534.572 87.6658 534.36 87.9819 534.098 88.143C533.839 88.2949 533.404 88.271 532.791 88.0712C532.178 87.8714 531.776 87.6736 531.585 87.4778C531.395 87.2821 531.229 87.0585 531.088 86.8072C530.956 86.5589 530.83 86.4151 530.709 86.3757C530.589 86.3364 529.99 86.3517 528.913 86.4216C527.839 86.4822 526.959 86.4006 526.271 86.1765L525.937 86.0676C524.6 85.6316 523.689 84.8878 523.204 83.836C522.721 82.7749 522.677 81.6717 523.07 80.5264L523.303 79.8476C523.49 79.3026 523.828 78.8015 524.315 78.3442C525.658 77.0774 527.963 76.9045 531.229 77.8257C532.359 78.1428 533.018 78.2855 533.204 78.2538C533.394 78.2129 533.552 78.0078 533.679 77.6383ZM541.816 77.796L541.964 77.3666C542.148 76.8309 542.394 76.4746 542.703 76.2979C543.02 76.1242 543.43 76.1191 543.931 76.2826L544.14 76.3507C544.614 76.5051 545.044 76.8303 545.431 77.3262C545.554 77.4793 545.661 77.6939 545.752 77.9701C545.846 78.237 545.926 78.3811 545.991 78.4023C546.065 78.4265 546.3 78.3746 546.695 78.2466C547.099 78.1217 547.537 78.0334 548.009 77.9819C548.484 77.9211 549.028 77.9907 549.641 78.1905C550.254 78.3903 550.66 78.6664 550.859 79.0189C551.058 79.3713 551.116 79.6676 551.033 79.9078C550.805 80.5728 550.409 81.0343 549.846 81.2922C549.6 81.4071 549.119 81.348 548.404 81.1149C547.69 80.8818 547.079 80.7957 546.573 80.8566C546.067 80.9176 545.592 81.1735 545.148 81.6244C544.707 82.0661 544.054 83.5478 543.188 86.0693C542.325 88.5816 541.732 89.9799 541.407 90.2643C541.091 90.5517 540.465 90.5425 539.527 90.2367L539.29 90.1596L539.058 90.0685C538.538 89.899 538.237 89.7084 538.155 89.4967C538.073 89.2851 538.189 88.722 538.503 87.8076L539.508 85.2854L539.779 84.5879L540.193 83.3826L540.426 82.6576L540.593 82.1727L540.821 81.4616C540.875 81.3045 540.929 81.1475 540.983 80.9905L541.198 80.2748C541.331 79.8869 541.452 79.413 541.562 78.8531C541.684 78.2869 541.769 77.9346 541.816 77.796ZM553.2 90.1964C553.038 90.6674 553.14 91.1371 553.506 91.6056C553.871 92.074 554.328 92.3975 554.876 92.5761L555.28 92.7078C556.217 93.0136 557.067 92.9156 557.827 92.4139C558.161 92.194 558.483 91.6315 558.794 90.7263L558.865 90.5646L558.984 90.2183C559.184 89.6364 558.973 89.244 558.35 89.0412L557.222 88.6734C556.201 88.3404 555.358 88.2554 554.693 88.4186C554.028 88.5817 553.611 88.908 553.443 89.3976L553.267 89.9102C553.241 90.0455 553.219 90.1409 553.2 90.1964ZM560.167 86.2752C560.634 84.9175 560.008 83.9586 558.29 83.3985C557.659 83.1927 556.828 83.0554 555.799 82.9868C554.779 82.9212 554.143 82.8475 553.893 82.7657C553.642 82.684 553.453 82.4836 553.325 82.1646C553.206 81.8486 553.212 81.5013 553.342 81.1226C553.554 80.5038 554.092 80.14 554.955 80.0312C556.163 79.8807 557.501 80.0446 558.968 80.5229L559.316 80.6365C561.702 81.4145 563.17 82.6427 563.719 84.3212C563.931 84.9656 563.974 85.6677 563.847 86.4275C563.724 87.178 563.358 88.44 562.749 90.2134C562.143 91.9775 561.778 93.2349 561.655 93.9854C561.531 94.736 561.387 95.3514 561.222 95.8317C561.06 96.3027 560.849 96.6188 560.587 96.7799C560.328 96.9318 559.893 96.9079 559.28 96.7081C558.667 96.5083 558.265 96.3105 558.074 96.1147C557.883 95.919 557.718 95.6954 557.577 95.4441C557.445 95.1958 557.319 95.052 557.198 95.0126C557.078 94.9733 556.479 94.9885 555.402 95.0585C554.328 95.1191 553.447 95.0374 552.76 94.8134L552.426 94.7044C551.089 94.2685 550.178 93.5246 549.692 92.4728C549.21 91.4118 549.166 90.3086 549.559 89.1633L549.792 88.4845C549.979 87.9395 550.316 87.4384 550.804 86.9811C552.147 85.7143 554.452 85.5414 557.718 86.4626C558.848 86.7797 559.506 86.9224 559.693 86.8907C559.882 86.8498 560.041 86.6447 560.167 86.2752ZM410.81 78.3679L412.941 79.0627C413.823 79.3503 414.308 79.3648 414.397 79.1062L414.426 79.023C414.784 77.9793 414.896 75.6844 414.761 72.1382C414.735 71.4622 414.68 71.1105 414.597 71.0833C414.559 71.0712 414.292 71.3384 413.795 71.8849C411.226 74.7345 409.785 76.6165 409.471 77.5309C409.389 77.7711 409.835 78.0501 410.81 78.3679ZM417.724 88.5407C417.556 89.0302 417.017 89.1266 416.107 88.83C415.197 88.5333 414.634 88.0366 414.419 87.34C414.289 86.9073 414.227 86.1423 414.232 85.045C414.249 83.9415 414.208 83.2656 414.107 83.0171C413.937 82.6123 413.276 82.2222 412.124 81.8468C409.785 81.0839 408.243 80.7612 407.501 80.8786C407.097 80.9421 406.513 81.4552 405.749 82.4179C404.985 83.3806 404.47 83.9472 404.205 84.1176C403.704 84.4366 403.03 84.4584 402.185 84.1829C401.35 83.9105 400.999 83.5803 401.132 83.1924C401.265 82.8044 403.042 80.3644 406.464 75.8724C409.885 71.3803 411.66 69.0679 411.788 68.9351C413.004 67.7088 413.799 67.0179 414.172 66.8624C414.555 66.7099 415.155 66.7668 415.972 67.0332C416.786 67.3089 417.292 67.5922 417.492 67.8832C417.976 68.6061 418.216 71.0207 418.21 75.127C418.214 79.2362 418.17 81.769 418.079 82.7254C417.991 83.6724 417.922 84.8361 417.871 86.2164C417.83 87.5997 417.781 88.3744 417.724 88.5407ZM423.354 79.8546C423.931 78.1735 425.3 77.3 427.46 77.2339C428.235 77.1993 429.032 77.3152 429.849 77.5816L430.225 77.7042C431.46 78.1069 432.506 78.638 433.364 79.2976C434.234 79.951 434.581 80.5317 434.407 81.0397C434.271 81.4369 434.045 81.7484 433.73 81.9743C433.424 82.2033 433.164 82.283 432.951 82.2133C432.747 82.1467 432.248 81.8557 431.454 81.3402C430.661 80.8248 429.916 80.4535 429.22 80.2264C428.533 80.0024 427.957 79.9484 427.494 80.0645C427.031 80.1805 426.722 80.4648 426.567 80.9174C426.411 81.3699 426.573 81.8594 427.054 82.3856C427.257 82.6059 427.667 82.9297 428.284 83.3569C430.105 84.608 431.279 85.684 431.806 86.585C432.345 87.4798 432.433 88.4582 432.068 89.5204L431.944 89.8806C431.754 90.4348 431.432 90.9359 430.979 91.3838C430.526 91.8317 430.009 92.1508 429.427 92.3412C428.192 92.75 426.86 92.7213 425.43 92.2551L424.664 92.0053C423.346 91.5755 422.236 90.9878 421.336 90.2423C420.436 89.4969 420.074 88.8655 420.252 88.3483C420.43 87.8311 420.761 87.4514 421.247 87.2092C421.421 87.1223 421.676 87.1333 422.01 87.2423C422.047 87.2544 422.55 87.5931 423.519 88.2583C424.507 88.9295 425.373 89.3862 426.115 89.6284C427.508 90.0825 428.404 89.7277 428.804 88.5639C428.946 88.1483 428.727 87.6607 428.144 87.1011C427.889 86.8534 427.172 86.3115 425.993 85.4752C424.817 84.6297 424.047 83.9266 423.682 83.366C423.329 82.7991 423.125 82.25 423.07 81.7185C423.015 81.1871 423.11 80.5657 423.354 79.8546ZM436.78 84.232C437.357 82.551 438.725 81.6775 440.885 81.6114C441.661 81.5768 442.457 81.6927 443.274 81.9591L443.65 82.0817C444.885 82.4843 445.931 83.0155 446.789 83.6751C447.659 84.3285 448.007 84.9092 447.832 85.4172C447.696 85.8143 447.47 86.1259 447.155 86.3518C446.85 86.5808 446.59 86.6605 446.376 86.5908C446.172 86.5242 445.673 86.2332 444.88 85.7177C444.086 85.2022 443.341 84.831 442.645 84.6039C441.958 84.3799 441.383 84.3259 440.92 84.4419C440.457 84.558 440.147 84.8423 439.992 85.2948C439.837 85.7474 439.999 86.2368 440.479 86.7631C440.682 86.9834 441.092 87.3071 441.71 87.7344C443.531 88.9854 444.705 90.0615 445.232 90.9625C445.771 91.8572 445.858 92.8357 445.493 93.8979L445.37 94.2581C445.179 94.8123 444.858 95.3133 444.405 95.7613C443.951 96.2092 443.434 96.5283 442.852 96.7187C441.618 97.1275 440.285 97.0988 438.856 96.6326L438.09 96.3828C436.771 95.9529 435.662 95.3653 434.762 94.6198C433.861 93.8743 433.5 93.243 433.677 92.7258C433.855 92.2085 434.187 91.8288 434.673 91.5867C434.847 91.4998 435.101 91.5108 435.435 91.6198C435.473 91.6319 435.976 91.9705 436.945 92.6357C437.933 93.307 438.798 93.7637 439.541 94.0059C440.933 94.46 441.83 94.1052 442.229 92.9414C442.372 92.5257 442.152 92.0381 441.57 91.4786C441.314 91.2309 440.597 90.6889 439.418 89.8527C438.242 89.0071 437.472 88.3041 437.107 87.7434C436.755 87.1766 436.551 86.6274 436.496 86.096C436.441 85.5645 436.535 84.9432 436.78 84.232ZM453.558 80.8291C453.624 80.7274 453.693 80.5703 453.766 80.3578C453.839 80.1454 454.025 79.9647 454.324 79.8156C454.635 79.6604 455.014 79.6555 455.46 79.8008L455.85 79.8818L456.17 79.9863L456.235 80.0228L456.653 80.2052C456.687 80.2265 456.727 80.2447 456.773 80.2599C457.442 80.4778 457.649 80.9563 457.395 81.6952L457.304 82.0967L457.195 82.4154L457.076 82.6695L456.93 82.9607C456.676 83.6996 455.937 83.8693 454.711 83.4697L454.586 83.4288L454.521 83.3922L454.048 83.1917C454.004 83.1674 453.964 83.1491 453.927 83.137C453.268 82.9221 453.052 82.4821 453.281 81.8171C453.294 81.7187 453.307 81.651 453.319 81.614L453.377 81.3556L453.558 80.8291ZM449.117 99.7626L448.755 99.6445C448.077 99.4235 447.695 99.1964 447.61 98.9633C447.473 98.5798 447.537 98.0047 447.8 97.2381C448.063 96.4715 448.335 95.8001 448.615 95.2239C448.905 94.6508 449.067 94.3135 449.102 94.2119L449.24 93.8562C449.281 93.7361 449.322 93.6161 449.364 93.496L449.501 93.1403L450.134 91.2977L450.338 90.748L450.59 90.0137L450.767 89.455C450.808 89.3349 450.849 89.2149 450.89 89.0948L451 88.73L451.399 86.3952L451.513 86.0627C451.665 85.6194 451.853 85.3726 452.077 85.3223C452.31 85.275 452.724 85.3483 453.318 85.542L453.861 85.7191C454.734 86.0037 455.167 86.4118 455.16 86.9436C455.158 87.2202 454.782 88.4484 454.034 90.6282C453.285 92.808 452.867 94.0733 452.777 94.4241C452.691 94.7657 452.584 95.3317 452.457 96.1223C452.343 96.9066 452.238 97.4373 452.143 97.7144L452.052 98.0698L451.876 98.5824C451.584 99.4322 451.273 99.9163 450.944 100.035C450.617 100.144 450.008 100.053 449.117 99.7626ZM458.171 91.2069C458.748 89.5259 460.117 88.6524 462.277 88.5863C463.053 88.5517 463.849 88.6676 464.666 88.934L465.042 89.0566C466.277 89.4592 467.323 89.9904 468.181 90.65C469.051 91.3034 469.398 91.8841 469.224 92.3921C469.088 92.7892 468.862 93.1008 468.547 93.3267C468.241 93.5557 467.982 93.6354 467.768 93.5657C467.564 93.4991 467.065 93.2081 466.271 92.6926C465.478 92.1771 464.733 91.8059 464.037 91.5788C463.35 91.3548 462.775 91.3008 462.311 91.4168C461.848 91.5329 461.539 91.8172 461.384 92.2697C461.228 92.7223 461.391 93.2117 461.871 93.738C462.074 93.9583 462.484 94.282 463.101 94.7093C464.922 95.9603 466.096 97.0364 466.623 97.9374C467.162 98.8321 467.25 99.8106 466.885 100.873L466.761 101.233C466.571 101.787 466.249 102.288 465.796 102.736C465.343 103.184 464.826 103.503 464.244 103.694C463.009 104.102 461.677 104.074 460.247 103.607L459.481 103.358C458.163 102.928 457.054 102.34 456.153 101.595C455.253 100.849 454.891 100.218 455.069 99.7007C455.247 99.1834 455.578 98.8037 456.064 98.5616C456.239 98.4747 456.493 98.4857 456.827 98.5947C456.864 98.6068 457.367 98.9454 458.337 99.6106C459.324 100.282 460.19 100.739 460.932 100.981C462.325 101.435 463.221 101.08 463.621 99.9163C463.763 99.5006 463.544 99.013 462.962 98.4535C462.706 98.2058 461.989 97.6638 460.81 96.8276C459.634 95.982 458.864 95.279 458.499 94.7183C458.146 94.1515 457.942 93.6023 457.887 93.0709C457.832 92.5395 457.927 91.9181 458.171 91.2069ZM476.619 107.343C476.336 108.165 475.35 108.301 473.661 107.75C471.971 107.199 470.974 106.237 470.671 104.865C470.446 103.806 470.795 101.932 471.718 99.2444L471.923 98.6486L472.19 97.7806L472.276 97.4851L472.562 96.6077C472.787 95.9519 472.885 95.5165 472.855 95.3015C472.838 95.0803 472.638 94.7632 472.253 94.3502C471.877 93.9402 471.761 93.5274 471.904 93.1118L471.989 92.8624C472.237 92.142 472.668 91.7433 473.283 91.6665C473.901 91.5804 474.294 91.4417 474.463 91.2503C474.482 91.2256 474.696 90.8435 475.105 90.1038C475.523 89.3671 475.872 88.8905 476.153 88.674C476.443 88.4605 476.918 88.4612 477.577 88.6761C478.245 88.8941 478.598 89.235 478.635 89.6989C478.649 89.8679 478.585 90.3861 478.442 91.2536C478.299 92.121 478.279 92.6897 478.383 92.9597C478.489 93.2204 478.855 93.5244 479.479 93.8716C480.103 94.2189 480.476 94.4845 480.599 94.6683C480.731 94.8551 480.711 95.1979 480.54 95.6966C480.369 96.1954 480.043 96.469 479.561 96.5175C479.369 96.5369 478.952 96.4729 478.311 96.3255C477.673 96.1689 477.2 96.1789 476.891 96.3556C476.592 96.5354 476.187 97.3688 475.677 98.8558L475.563 99.1422C475.487 99.3332 475.416 99.5256 475.349 99.7196L475.235 100.006L475.031 100.602C474.387 102.477 474.127 103.64 474.251 104.091C474.384 104.545 474.758 104.914 475.373 105.196C475.989 105.479 476.395 105.771 476.591 106.071C476.796 106.374 476.806 106.798 476.619 107.343ZM485.673 91.3006C485.739 91.1988 485.809 91.0417 485.882 90.8293C485.954 90.6168 486.14 90.4361 486.439 90.2871C486.751 90.1319 487.129 90.1269 487.575 90.2722L487.965 90.3533L488.286 90.4577L488.35 90.4943L488.768 90.6766C488.802 90.6979 488.842 90.7162 488.888 90.7313C489.557 90.9493 489.764 91.4277 489.511 92.1666L489.419 92.5682L489.31 92.8868L489.192 93.141L489.045 93.4322C488.791 94.1711 488.052 94.3407 486.826 93.9411L486.701 93.9002L486.636 93.8637L486.163 93.6632C486.12 93.6388 486.079 93.6206 486.042 93.6085C485.383 93.3935 485.168 92.9535 485.396 92.2885C485.409 92.1901 485.422 92.1224 485.435 92.0855L485.492 91.827L485.673 91.3006ZM481.232 110.234L480.87 110.116C480.192 109.895 479.811 109.668 479.726 109.435C479.589 109.051 479.652 108.476 479.915 107.71C480.178 106.943 480.45 106.272 480.731 105.695C481.02 105.122 481.183 104.785 481.218 104.683L481.355 104.328C481.396 104.208 481.438 104.087 481.479 103.967L481.616 103.612L482.249 101.769L482.453 101.219L482.705 100.485L482.882 99.9264C482.923 99.8064 482.964 99.6863 483.006 99.5662L483.115 99.2015L483.514 96.8667L483.628 96.5342C483.781 96.0908 483.969 95.844 484.192 95.7937C484.425 95.7465 484.839 95.8197 485.433 96.0134L485.976 96.1905C486.849 96.4751 487.282 96.8833 487.275 97.415C487.273 97.6917 486.898 98.9199 486.149 101.1C485.401 103.279 484.982 104.545 484.892 104.896C484.806 105.237 484.699 105.803 484.572 106.594C484.458 107.378 484.353 107.909 484.258 108.186L484.167 108.541L483.991 109.054C483.699 109.904 483.389 110.388 483.059 110.506C482.732 110.615 482.123 110.525 481.232 110.234ZM491.182 100.199L491.329 99.7691C491.513 99.2334 491.759 98.8772 492.068 98.7005C492.386 98.5268 492.795 98.5217 493.297 98.6851L493.505 98.7533C493.979 98.9077 494.409 99.2328 494.796 99.7288C494.919 99.8819 495.026 100.097 495.117 100.373C495.212 100.64 495.291 100.784 495.356 100.805C495.43 100.829 495.665 100.777 496.06 100.649C496.464 100.524 496.902 100.436 497.374 100.384C497.849 100.324 498.393 100.393 499.006 100.593C499.619 100.793 500.025 101.069 500.224 101.421C500.423 101.774 500.481 102.07 500.399 102.31C500.17 102.975 499.774 103.437 499.211 103.695C498.965 103.81 498.485 103.751 497.77 103.518C497.055 103.284 496.444 103.198 495.938 103.259C495.432 103.32 494.957 103.576 494.513 104.027C494.072 104.469 493.419 105.95 492.553 108.472C491.691 110.984 491.097 112.382 490.772 112.667C490.457 112.954 489.83 112.945 488.892 112.639L488.656 112.562L488.424 112.471C487.904 112.302 487.603 112.111 487.52 111.899C487.438 111.688 487.554 111.125 487.868 110.21L488.874 107.688L489.144 106.99L489.558 105.785L489.791 105.06L489.958 104.575L490.186 103.864C490.24 103.707 490.294 103.55 490.348 103.393L490.563 102.677C490.696 102.289 490.818 101.816 490.927 101.256C491.049 100.69 491.134 100.337 491.182 100.199Z" fill="black"/>
<path d="M330.156 172.956C330.821 173.443 331.766 173.3 332.267 172.635L340.429 161.805C340.93 161.14 340.797 160.206 340.132 159.719C339.467 159.231 338.521 159.375 338.02 160.04L330.765 169.667L321.129 162.607C320.464 162.119 319.519 162.263 319.018 162.928C318.517 163.592 318.65 164.526 319.316 165.014L330.156 172.956ZM368.081 67.6966C348.26 73.7509 335.966 82.6518 330.059 98.9281C324.235 114.979 324.721 137.989 329.57 171.979L332.555 171.526C327.704 137.511 327.353 115.181 332.896 99.9053C338.357 84.855 349.636 76.4429 368.937 70.5474L368.081 67.6966Z" fill="black"/>
<path d="M151.21 476.798C151.21 476.798 65.6727 477.712 54.7898 487.45C43.9069 497.188 35.6509 508.705 83.8609 514.46C132.071 520.216 279.409 502.95 325.499 504.866C371.589 506.782 533.263 518.744 564.529 515.644C595.796 512.544 673.308 518.775 671.92 496.474C670.531 474.174 639.515 456.933 595.314 460.741C551.113 464.548 363.108 471.719 350.098 471.017C337.089 470.316 151.21 476.798 151.21 476.798Z" fill="#D8D9DD"/>
<path d="M100.461 176.548L84.6242 176.567L68.8564 183.819L72.0025 306.589L115.697 306.815L115.703 225.127L120.388 211.036L100.461 176.548Z" fill="#C75984"/>
<path d="M83.1665 485.91H70.4697V494.846H101.117L83.1665 485.91Z" fill="#C75984"/>
<path d="M121.082 484.219H108.366V493.155H139.032L121.082 484.219Z" fill="#C75984"/>
<path d="M115.696 300.433L85.0742 306.589L114.22 400.721L105.62 484.219H123.521L137.725 400.22L115.696 300.433Z" fill="#302169"/>
<path d="M71.5647 300.433H115.709L99.6038 357.04C99.6038 357.04 85.1871 457.578 86.9383 486.899H69.4256L69.0191 344.696C59.3496 318.532 71.5647 300.433 71.5647 300.433Z" fill="#302169"/>
<path d="M88.3453 167.825L83.8608 178.346C83.8608 178.346 88.9708 186.406 98.2463 186.406C103.6 186.406 99.3533 178.327 99.3533 178.327L98.2463 167.825H88.3453Z" fill="#E3B6B9"/>
<path d="M92.849 135.26C101.343 135.26 105.177 139.23 106.484 153.127C107.616 165.32 104.858 169.453 96.0575 169.453C96.0575 169.453 88.4833 169.24 88.4645 169.14C84.4053 167.649 79.4893 164.393 79.4893 152.363C79.4893 138.785 83.8111 135.26 92.849 135.26Z" fill="#E3B6B9"/>
<path d="M240.625 214.011H109.849V283.7H240.625V214.011Z" fill="#F3DBA0"/>
<path d="M114.221 241.647L79.8519 178.164L68.8564 183.819L69.2067 197.609L102.181 248.855L114.221 241.647Z" fill="#E3B6B9"/>
<path d="M75.7927 209.408L91.5354 199.137L80.1959 178.602L68.8564 183.819L69.2067 197.609L75.7927 209.408Z" fill="#C75984"/>
<path d="M182.276 271.907C186.029 272.477 191.277 269.221 191.195 265.927C191.114 262.633 184.084 261.643 185.46 261.048C192.765 257.867 178.292 256.445 173.701 257.767L171.543 265.682C171.543 265.682 173.032 270.542 182.276 271.907Z" fill="#E3B6B9"/>
<path d="M105.89 235.704L173.927 257.717L171.719 266.108L102.125 248.899L105.89 235.704Z" fill="#E3B6B9"/>
<path d="M112.1 171.551C113.895 165.915 111.913 165.007 111.787 161.662C111.318 148.787 111.162 135.886 100.598 129.886C98.1838 127.92 94.775 126.549 89.3398 127.563C84.9616 128.377 82.9164 129.442 81.309 130.907C79.0949 132.373 74.504 136.205 72.3087 144.058C71.0578 148.442 70.6325 149.745 70.989 153.102C71.8208 160.804 71.6958 160.491 69.344 167.468C67.0674 174.212 74.2038 178.678 71.5707 183.819C69.2815 188.284 73.053 190.789 80.5897 190.789C85.4683 190.789 89.6213 186.23 87.0069 175.133C86.175 171.601 88.0389 171.444 88.2578 167.787C88.3954 165.357 85.1305 160.948 83.6795 159.896C80.5522 157.667 81.2777 143.307 84.0923 143.37C98.7779 143.676 103.112 142.844 104.407 142.311C105.032 143.795 105.689 146.313 106.021 150.615C106.946 162.671 100.004 162.846 97.7209 165.645C96.3574 167.342 97.3707 176.968 98.7842 182.128C100.104 186.938 101.067 188.71 106.409 188.622C108.241 188.591 112.038 187.514 113.82 184.239C115.878 180.406 110.574 176.36 112.1 171.551Z" fill="#302169"/>
<path d="M233.257 238.779H102.475L109.849 214.011H240.619L233.257 238.779Z" fill="#F3DBA0"/>
<path d="M240.619 214.011C238.605 222.396 236.516 230.763 234.264 239.061L234.064 239.793H233.257C222.355 240.094 211.454 240.363 200.558 240.382C189.663 240.401 178.761 240.614 167.866 240.445C146.069 240.332 124.265 239.906 102.475 238.741C124.265 237.576 146.069 237.144 167.866 237.032C178.761 236.862 189.657 236.994 200.558 237.094C211.46 237.194 222.355 237.389 233.257 237.689L232.25 238.434C234.902 230.281 237.723 222.133 240.619 214.011Z" fill="#AF9F8C"/>
<path d="M407.796 177.907H430.244L446.036 186.675L446.562 187.301L443.572 299.5H387.575C388.069 287.144 390.227 192.073 390.227 192.073L407.796 177.907Z" fill="#5AA79B"/>
<path d="M423.752 482.071H435.485V490.331H407.158L423.752 482.071Z" fill="#A293BF"/>
<path d="M390.002 482.071H401.748V490.331H373.415L390.002 482.071Z" fill="#A293BF"/>
<path d="M387.575 299.5H421.969L399.409 386.455L404.275 482.071H387.757L373.353 385.991L387.575 299.5Z" fill="#302169"/>
<path d="M421.469 167.881L424.09 177.926L412.494 186.393L409.504 177.876L410.442 167.881H421.469Z" fill="#7C5651"/>
<path d="M392.329 299.5H443.573L436.455 482.991H420.306C421.907 455.893 410.092 319.772 410.092 319.772L392.329 299.5Z" fill="#302169"/>
<path d="M415.302 132.867C406.164 132.867 402.03 137.126 400.641 152.081C399.391 165.188 402.393 169.616 411.837 169.616C411.837 169.616 419.968 169.397 420.006 169.278C424.384 167.681 429.663 164.186 429.663 151.229C429.688 136.675 425.022 132.867 415.302 132.867Z" fill="#93675A"/>
<path d="M401.248 132.811C402.173 132.147 403.312 132.103 404.144 131.559C405.469 130.707 406.683 129.11 408.828 129.11C412.581 129.11 412.987 130.212 413.275 130.268C413.957 130.394 414.001 128.759 419.38 129.417C423.032 129.868 422.695 132.241 423.32 132.548C424.277 132.974 426.81 132.21 428.324 133.412C429.737 134.496 430.263 136.412 430.469 137.796C431.355 138.132 432.135 138.701 432.727 139.442C433.319 140.184 433.702 141.071 433.834 142.011C433.99 143.263 433.377 144.741 432.971 145.724C433.928 146.582 434.847 147.803 434.597 149.413C434.275 150.844 433.432 152.103 432.233 152.945C432.645 153.397 432.951 153.934 433.131 154.519C433.31 155.104 433.358 155.721 433.271 156.327C432.998 157.534 432.408 158.648 431.563 159.552C431.77 160.124 431.842 160.736 431.772 161.34C431.703 161.944 431.494 162.524 431.163 163.034C428.661 166.879 424.74 166.848 425.002 166.265C425.628 164.881 425.766 160.992 425.766 160.992C428.061 155.425 427.486 153.603 426.597 153.321C425.709 153.039 422.594 157.078 423.295 149.789C423.995 142.499 406.358 143.752 401.948 143.783C400.022 143.783 399.915 140.858 399.077 139.23C398.12 137.264 398.796 134.558 401.248 132.811Z" fill="#16356B"/>
<path d="M445.718 218.062L446.012 186.687L480.393 227.619L470.154 242.135L445.718 218.062Z" fill="#93675A"/>
<path d="M452.385 224.632L445.718 218.062L446.012 186.687L463.637 207.673L452.385 224.632Z" fill="#5AA79B"/>
<path d="M449.846 291.14C447.644 293.914 440.214 295.16 438.325 292.787C436.436 290.413 441.502 286.117 438.219 285.898C438.219 285.898 433.215 285.046 445.812 276.592L452.623 281.852C452.623 281.852 454.843 284.821 449.846 291.14Z" fill="#93675A"/>
<path d="M492.314 240.758L480.393 227.619L445.812 276.598L452.623 281.859L492.314 240.758Z" fill="#93675A"/>
<path d="M221.229 246.363L260.483 266.829L263.116 260.071L233.332 238.91L221.229 246.363Z" fill="#A293BF"/>
<path d="M235.096 185.604L233.332 238.917C229.761 243.62 221.229 246.363 221.229 246.363V175.02L235.096 185.604Z" fill="#A293BF"/>
<path d="M260.665 266.384C261.046 267.292 262.729 269.096 266.356 270.655C269.24 271.876 271.441 271.701 273.061 269.559C275.363 266.49 269.771 263.297 274.206 263.297C274.206 263.297 271.992 258.462 262.997 260.341L260.665 266.384Z" fill="#E3B6B9"/>
<path d="M201.547 486.154H190.213V494.12H217.552L201.547 486.154Z" fill="#A293BF"/>
<path d="M234.132 486.154H222.793V494.12H250.15L234.132 486.154Z" fill="#A293BF"/>
<path d="M230.568 294.891L203.254 300.389L225.045 384.376L220.341 486.154H236.309L250.219 383.925L230.568 294.891Z" fill="#302169"/>
<path d="M191.189 294.891H230.592L221.555 326.642C221.555 326.642 203.373 460.86 204.917 487.031H189.281C189.281 487.031 196.199 357.96 188.606 336.392C179.255 309.877 191.189 294.891 191.189 294.891Z" fill="#302169"/>
<path d="M190.951 294.891L187.199 207.823L191.802 178.108L202.798 173.555L217.339 173.536L225.439 177.206L229.93 185.635L230.568 294.891H190.951Z" fill="#A293BF"/>
<path d="M205.718 162.433L202.797 173.555C202.797 173.555 201.497 182.673 211.804 182.084C219.278 181.652 217.339 173.536 217.339 173.536L216.157 162.433H205.718Z" fill="#DC9E9C"/>
<path d="M210.403 127.056C219.785 127.056 224.044 131.44 225.477 146.801C226.728 160.272 223.669 164.844 213.968 164.844C213.968 164.844 205.6 164.606 205.581 164.487C201.078 162.846 195.667 159.258 195.667 145.95C195.667 130.945 200.44 127.056 210.403 127.056Z" fill="#E3B6B9"/>
<path d="M225.076 165.251C230.199 160.353 226.878 143.332 226.759 141.378C226.089 130.569 219.041 126.974 219.041 126.974C219.041 126.974 225.107 134.571 225.045 147.171C224.964 166.359 216.551 161.036 215.663 166.215C215.638 166.203 223.175 167.067 225.076 165.251Z" fill="#302169"/>
<path d="M206.194 166.416C206.194 166.416 206.882 164.167 201.534 161.406C197.75 159.433 200.127 155.619 199.758 153.521C199.664 152.939 197.881 153.145 197.794 150.027C197.656 145.323 200.771 145.931 200.771 145.931C200.771 145.931 202.647 144.278 208.395 144.635C220.936 145.399 223.963 136.8 223.963 136.8C223.018 122.396 209.577 124.901 201.478 126.674C194.21 128.283 192.14 141.416 192.327 152.544C192.603 169.34 206.194 166.416 206.194 166.416Z" fill="#302169"/>
<path d="M176.704 257.704L239.481 278.483L241.457 271.676L188.506 249.093L176.704 257.704Z" fill="#A293BF"/>
<path d="M184.716 187.489L176.704 257.704C181.926 260.09 192.603 250.815 192.603 250.815L191.802 178.126L184.716 187.489Z" fill="#A293BF"/>
<path d="M239.743 277.581C240.118 278.496 242.408 282.14 245.241 283.493C248.074 284.846 253.491 285.14 253.735 282.46C253.978 279.779 250.607 276.304 254.829 276.304C254.829 276.304 252.552 271.757 241.344 272.039L239.743 277.581Z" fill="#E3B6B9"/>
<path d="M192.678 202.845C192.928 210.844 193.057 218.837 193.065 226.824L193.197 250.803L192.809 250.214C206.25 256.189 219.835 261.856 233.151 268.125C219.391 262.852 205.925 256.965 192.309 251.391L191.921 251.229V250.803L192.171 226.824C192.221 218.829 192.39 210.836 192.678 202.845Z" fill="#302169"/>
<path d="M230.63 258.092C229.636 248.849 229.148 239.587 228.623 230.318C228.254 221.043 227.835 211.775 227.928 202.481C228.923 211.725 229.404 220.987 229.93 230.256C230.311 239.524 230.718 248.774 230.63 258.092Z" fill="#302169"/>
<path d="M328.507 357.829C297.716 330.048 230.555 283.681 247.248 232.861C262.209 187.984 331.904 189.343 341.204 239.28C360.868 192.455 429.268 205.919 434.359 252.957C439.926 306.188 364.509 337.225 328.507 357.829Z" fill="#E3B6B9"/>
<path d="M257.969 256.658C255.067 242.167 267.438 210.46 291.018 215.445C298.78 217.085 301.613 226.511 295.152 229.423C275.381 238.284 269.358 252.35 273.705 262.125C277.702 271.156 262.635 279.917 257.969 256.658Z" fill="white"/>
<path d="M229.192 287.488L220.729 357.522C220.729 357.522 218.972 371.3 230.949 383.906C242.927 396.512 282.374 438.271 282.374 438.271C282.374 438.271 293.551 446.9 302.013 443.224C310.476 439.548 317.981 437.469 319.101 419.721C320.22 401.973 322.297 398.297 319.101 385.34C315.905 372.383 309.362 365.814 309.362 365.814L283.806 335.616C283.806 335.616 280.135 330.499 272.948 333.38C265.762 336.261 270.722 345.842 270.722 345.842L285.407 375.583L258.894 352.412C255.657 349.069 252.964 345.238 250.914 341.058C247.561 334.169 247.399 288.134 247.399 288.134C247.399 288.134 247.399 279.817 238.774 279.178C230.148 278.539 229.192 287.488 229.192 287.488Z" fill="#DDDDDD"/>
<path d="M441.383 306.057L438.488 376.529C438.488 376.529 438.012 390.381 424.165 400.952C410.317 411.524 364.678 446.324 364.678 446.324C364.678 446.324 352.262 453.05 344.5 448.053C336.738 443.055 329.658 439.78 331.41 422.088C333.161 404.397 331.697 400.426 336.932 388.158C342.167 375.89 349.685 370.448 349.685 370.448L379.751 344.772C379.751 344.772 384.198 340.313 390.828 344.314C397.458 348.316 391.022 356.977 391.022 356.977L371.751 383.969L401.642 365.356C405.374 362.579 408.648 359.231 411.343 355.437C415.758 349.174 423.314 303.765 423.314 303.765C423.314 303.765 424.652 295.561 433.265 296.319C441.877 297.076 441.383 306.057 441.383 306.057Z" fill="#DDDDDD"/>
<path d="M361.976 217.411C361.882 220.686 366.291 225.903 368.987 225.296C371.683 224.688 370.676 218.657 373.071 220.417C373.071 220.417 376.298 222.296 374.172 212.902C373.95 211.886 373.395 210.974 372.594 210.311C371.794 209.648 370.795 209.273 369.756 209.245L367.455 209.195C366.447 209.178 365.459 209.476 364.628 210.047C363.798 210.618 363.166 211.435 362.82 212.382C362.274 214.003 361.989 215.701 361.976 217.411V217.411Z" fill="#93675A"/>
<path d="M503.848 270.693C507.221 271.893 510.852 272.17 514.368 271.494C515.619 271.225 515.806 269.778 514.774 269.459C510.54 268.15 508.564 265.701 520.604 266.791C523.224 267.023 525.57 266.979 527.327 267.292C527.431 267.286 527.536 267.286 527.64 267.292L576.488 264.969L599.455 219.747C599.911 218.858 600.538 218.068 601.299 217.421C602.06 216.775 602.941 216.285 603.892 215.979C604.842 215.673 605.843 215.558 606.838 215.64C607.833 215.722 608.802 215.999 609.69 216.456C610.578 216.913 611.367 217.54 612.013 218.303C612.659 219.065 613.148 219.947 613.453 220.899C613.759 221.851 613.874 222.853 613.792 223.849C613.71 224.845 613.433 225.816 612.977 226.705L588.021 275.859L587.871 276.172C587.259 277.385 586.308 278.394 585.135 279.078C583.962 279.761 582.616 280.09 581.26 280.024L527.64 277.481C527.032 277.447 526.434 277.305 525.876 277.061C520.278 280.193 510.721 281.32 503.16 278.095C488.962 272.026 500.695 269.553 503.848 270.693Z" fill="#E3B6B9"/>
<path d="M558.781 483.918H570.146V492.679H542.732L558.781 483.918Z" fill="#A293BF"/>
<path d="M549.174 378.527L575.775 319.74H605.609L573.936 388.052L570.54 485.434H551.626L549.174 378.527Z" fill="#302169"/>
<path d="M598.891 211.869L610.068 210.435C610.068 210.435 620.945 210.904 620.507 221.281C619.725 239.186 617.705 274.682 617.067 289.38C616.623 299.526 617.113 309.691 618.531 319.747H570.114C574.13 237.094 598.891 211.869 598.891 211.869Z" fill="#693688"/>
<path d="M613.108 204.723L612.251 210.504L600.236 217.261L598.823 211.769L600.687 202.35L613.108 204.723Z" fill="#DC9E9C"/>
<path d="M614.115 164.149C604.058 161.938 598.479 165.658 593.35 181.865C588.841 196.081 591.049 201.717 601.481 204.009C601.481 204.009 610.513 205.738 610.544 205.613C615.754 204.905 622.428 202.319 625.555 187.984C629.026 171.82 624.829 166.503 614.115 164.149Z" fill="#E3B6B9"/>
<path d="M621.076 159.959C617.28 159.094 613.345 159.03 609.522 159.771C605.7 160.512 602.073 162.041 598.873 164.261C596.902 165.72 596.371 162.796 596.371 162.796C596.371 162.796 591.286 169.541 597.478 170.856C600.897 170.919 604.287 171.506 607.529 172.597C611.819 173.987 610.412 184.264 610.268 185.278C609.974 187.558 609.68 188.184 610.781 188.529C611.225 188.666 611.688 188.792 612.07 188.936C612.207 189.005 612.358 189.045 612.512 189.05C612.666 189.056 612.82 189.028 612.962 188.969C613.104 188.909 613.231 188.819 613.336 188.705C613.44 188.592 613.518 188.456 613.564 188.309C614.69 186.387 616.479 185.347 618.249 186.669C619.444 187.577 617.805 189.618 616.16 191.102C614.672 192.455 610.644 201.949 611.582 205.506C615.353 205.731 619.109 204.859 622.396 202.994C625.684 201.13 628.362 198.352 630.108 194.998C638.251 179.304 636.125 163.504 621.076 159.959Z" fill="#003A6A"/>
<path d="M616.191 319.646C616.191 319.646 616.26 337.376 605.696 345.517L605.646 345.68C605.646 345.68 610.988 403.407 611.219 404.353L645.769 469.383L629.995 475.545C629.995 475.545 587.508 410.29 587.239 409.319C587.239 409.319 571.465 346.694 571.478 345.68V319.841L616.191 319.646Z" fill="#302169"/>
<path d="M633.066 474.38L644.887 469.765L648.953 478.031L620.632 490.087L633.066 474.38Z" fill="#A293BF"/>
<path d="M564.016 261.831C564.016 265.48 562.571 268.979 559.997 271.562C557.424 274.145 553.932 275.6 550.288 275.609H512.097C508.448 275.609 504.948 274.157 502.368 271.573C499.787 268.989 498.337 265.485 498.337 261.831V211.38C498.347 207.733 499.801 204.238 502.381 201.662C504.96 199.087 508.455 197.64 512.097 197.64H550.288C552.09 197.64 553.875 197.994 555.541 198.685C557.207 199.375 558.72 200.387 559.995 201.663C561.27 202.939 562.281 204.453 562.971 206.121C563.661 207.788 564.016 209.575 564.016 211.38V261.831Z" fill="white"/>
<path d="M527.627 230.036C524.344 224.093 516.419 213.315 521.717 206.345C526.427 200.189 537.147 204.122 535.927 212.357C541.469 206.164 551.338 211.9 549.618 219.465C547.642 228.001 534.301 228.778 527.627 230.036V230.036Z" fill="#E3B6B9"/>
<path d="M522.111 210.572C522.436 208.174 526.039 203.928 529.423 205.963C530.542 206.64 530.467 208.243 529.316 208.343C525.776 208.662 524.106 210.516 524.263 212.263C524.4 213.904 521.592 214.449 522.111 210.572Z" fill="white"/>
<path d="M550.975 197.64V189.38C550.975 188.218 550.514 187.103 549.693 186.28C548.872 185.458 547.758 184.996 546.597 184.996H515.794C514.633 184.996 513.519 185.458 512.698 186.28C511.877 187.103 511.416 188.218 511.416 189.38V197.64H550.975Z" fill="#302169"/>
<path d="M516.4 196.169C516.157 196.169 515.923 196.072 515.75 195.899C515.578 195.727 515.481 195.492 515.481 195.248V187.633C515.481 187.389 515.578 187.155 515.75 186.982C515.923 186.809 516.157 186.712 516.4 186.712C516.644 186.712 516.878 186.809 517.051 186.982C517.223 187.155 517.32 187.389 517.32 187.633V195.248C517.32 195.492 517.223 195.727 517.051 195.899C516.878 196.072 516.644 196.169 516.4 196.169V196.169Z" fill="#7779B1"/>
<path d="M520.628 196.169C520.385 196.169 520.151 196.072 519.978 195.899C519.806 195.727 519.709 195.492 519.709 195.248V187.633C519.709 187.389 519.806 187.155 519.978 186.982C520.151 186.809 520.385 186.712 520.628 186.712C520.872 186.712 521.106 186.809 521.279 186.982C521.451 187.155 521.548 187.389 521.548 187.633V195.248C521.548 195.492 521.451 195.727 521.279 195.899C521.106 196.072 520.872 196.169 520.628 196.169V196.169Z" fill="#7779B1"/>
<path d="M524.85 196.169C524.606 196.169 524.372 196.072 524.2 195.899C524.028 195.727 523.931 195.492 523.931 195.248V187.633C523.931 187.389 524.028 187.155 524.2 186.982C524.372 186.809 524.606 186.712 524.85 186.712C525.094 186.712 525.328 186.809 525.5 186.982C525.673 187.155 525.769 187.389 525.769 187.633V195.248C525.769 195.369 525.746 195.489 525.699 195.6C525.653 195.712 525.586 195.814 525.5 195.899C525.415 195.985 525.313 196.052 525.202 196.099C525.09 196.145 524.971 196.169 524.85 196.169V196.169Z" fill="#7779B1"/>
<path d="M529.078 196.169C528.957 196.169 528.838 196.145 528.726 196.099C528.615 196.052 528.513 195.985 528.428 195.899C528.343 195.814 528.275 195.712 528.229 195.6C528.182 195.489 528.159 195.369 528.159 195.248V187.633C528.159 187.389 528.256 187.155 528.428 186.982C528.6 186.809 528.834 186.712 529.078 186.712C529.322 186.712 529.556 186.809 529.728 186.982C529.901 187.155 529.997 187.389 529.997 187.633V195.248C529.997 195.492 529.901 195.727 529.728 195.899C529.556 196.072 529.322 196.169 529.078 196.169V196.169Z" fill="#7779B1"/>
<path d="M533.3 196.169C533.056 196.169 532.823 196.072 532.65 195.899C532.478 195.727 532.381 195.492 532.381 195.248V187.633C532.381 187.389 532.478 187.155 532.65 186.982C532.823 186.809 533.056 186.712 533.3 186.712C533.544 186.712 533.778 186.809 533.95 186.982C534.123 187.155 534.22 187.389 534.22 187.633V195.248C534.22 195.492 534.123 195.727 533.95 195.899C533.778 196.072 533.544 196.169 533.3 196.169V196.169Z" fill="#7779B1"/>
<path d="M537.528 196.169C537.284 196.169 537.05 196.072 536.878 195.899C536.705 195.727 536.608 195.492 536.608 195.248V187.633C536.608 187.389 536.705 187.155 536.878 186.982C537.05 186.809 537.284 186.712 537.528 186.712C537.772 186.712 538.006 186.809 538.178 186.982C538.35 187.155 538.447 187.389 538.447 187.633V195.248C538.447 195.492 538.35 195.727 538.178 195.899C538.006 196.072 537.772 196.169 537.528 196.169V196.169Z" fill="#7779B1"/>
<path d="M541.75 196.169C541.506 196.169 541.272 196.072 541.1 195.899C540.927 195.726 540.831 195.492 540.831 195.248V187.633C540.831 187.384 540.929 187.145 541.105 186.969C541.281 186.793 541.52 186.694 541.769 186.694C542.018 186.694 542.256 186.793 542.432 186.969C542.608 187.145 542.707 187.384 542.707 187.633V195.248C542.706 195.372 542.681 195.494 542.632 195.608C542.583 195.722 542.512 195.825 542.423 195.911C542.333 195.997 542.228 196.064 542.112 196.108C541.997 196.152 541.874 196.173 541.75 196.169V196.169Z" fill="#7779B1"/>
<path d="M545.972 196.169C545.851 196.169 545.732 196.145 545.621 196.099C545.51 196.052 545.409 195.984 545.324 195.899C545.239 195.813 545.172 195.712 545.126 195.6C545.081 195.488 545.058 195.369 545.059 195.248V187.633C545.058 187.512 545.081 187.392 545.126 187.28C545.172 187.168 545.239 187.066 545.323 186.98C545.408 186.894 545.509 186.826 545.62 186.779C545.732 186.732 545.851 186.707 545.972 186.706C546.218 186.706 546.454 186.804 546.629 186.977C546.803 187.151 546.902 187.387 546.904 187.633V195.248C546.903 195.37 546.878 195.49 546.831 195.602C546.784 195.715 546.715 195.816 546.628 195.902C546.542 195.987 546.439 196.055 546.327 196.101C546.214 196.146 546.093 196.17 545.972 196.169V196.169Z" fill="#7779B1"/>
<path d="M513.911 246.532C509.364 241.522 499.206 232.811 502.778 224.801C505.968 217.749 517.295 219.165 517.976 227.431C521.967 220.135 532.881 223.479 532.931 231.232C532.931 240 520.122 243.789 513.911 246.532Z" fill="#302169"/>
<path d="M504.116 228.865C503.879 226.454 506.431 221.494 510.19 222.709C511.441 223.104 511.728 224.688 510.627 225.051C507.256 226.166 506.037 228.358 506.581 230.018C507.1 231.558 504.492 232.735 504.116 228.865Z" fill="white"/>
<path d="M545.434 249.838C539.067 247.459 526.045 244.434 525.557 235.685C525.132 227.945 535.846 223.962 540.249 231.007C540.437 222.697 551.664 220.63 555.26 227.494C559.3 235.266 549.675 244.534 545.422 249.838H545.434Z" fill="#5AA79B"/>
<path d="M528.609 238.666C527.302 236.631 527.283 231.057 531.174 230.4C532.425 230.18 533.457 231.452 532.65 232.278C530.148 234.783 530.092 237.288 531.336 238.541C532.581 239.793 530.717 241.935 528.609 238.666Z" fill="white"/>
<path d="M521.373 270.066C515.118 267.442 502.221 263.904 502.059 255.149C501.94 247.39 512.791 243.833 516.932 251.047C517.451 242.743 528.747 241.121 532.08 248.122C535.833 256.045 525.826 264.931 521.373 270.041V270.066Z" fill="#96C5CE"/>
<path d="M505.004 258.224C503.753 256.138 503.972 250.571 507.888 250.083C509.17 249.914 510.121 251.216 509.283 252.018C506.699 254.46 506.531 256.959 507.731 258.236C508.845 259.42 506.975 261.574 505.004 258.224Z" fill="white"/>
<path d="M539.186 270.436C535.896 264.486 527.971 253.715 533.263 246.745C537.985 240.589 548.699 244.528 547.467 252.757C553.021 246.563 562.897 252.306 561.177 259.858C559.188 268.4 545.853 269.177 539.186 270.436Z" fill="#C75984"/>
<path d="M533.663 250.997C533.982 248.598 537.597 244.352 540.974 246.388C542.088 247.052 542.025 248.661 540.868 248.774C537.34 249.093 535.652 250.947 535.808 252.688C535.946 254.297 533.137 254.855 533.663 250.997Z" fill="white"/>
<path d="M506.706 274.751C510.089 275.942 513.727 276.218 517.251 275.552C518.502 275.277 518.702 273.83 517.664 273.517C513.411 272.208 511.409 269.759 523.524 270.849C526.176 271.087 528.528 271.024 530.286 271.356C530.387 271.347 530.49 271.347 530.592 271.356L579.696 269.02L602.751 223.799C603.207 222.905 603.836 222.109 604.599 221.458C605.363 220.806 606.247 220.312 607.202 220.003C608.156 219.694 609.162 219.576 610.162 219.656C611.162 219.737 612.137 220.013 613.03 220.47C613.923 220.928 614.718 221.557 615.368 222.321C616.019 223.086 616.512 223.971 616.821 224.927C617.13 225.883 617.248 226.89 617.167 227.891C617.087 228.893 616.811 229.868 616.354 230.763L591.28 279.917L591.124 280.23C590.5 281.443 589.542 282.451 588.364 283.135C587.185 283.818 585.836 284.149 584.475 284.088L530.592 281.533C529.986 281.505 529.39 281.365 528.834 281.12C523.205 284.251 513.605 285.372 505.999 282.147C491.745 276.072 503.535 273.605 506.706 274.751Z" fill="#E3B6B9"/>
<path d="M590.61 247.152L601.537 223.166C602.653 221.164 604.517 219.688 606.72 219.062C608.922 218.436 611.283 218.711 613.283 219.828C615.283 220.945 616.757 222.812 617.383 225.018C618.008 227.223 617.732 229.587 616.617 231.589L605.69 255.575L590.61 247.152Z" fill="#693688"/>
<path d="M367.209 278.575L325.565 253.782C322.182 251.769 317 253.723 317 258.703V308.275C317 312.743 321.815 315.435 325.565 313.195L367.209 288.415C370.924 286.211 370.936 280.779 367.209 278.575V278.575Z" fill="#F7F7F7"/>
</svg>
