<svg width="64" height="64" viewBox="0 0 64 64" fill="none" xmlns="http://www.w3.org/2000/svg">
<path d="M32 64C49.6731 64 64 49.6731 64 32C64 14.3269 49.6731 0 32 0C14.3269 0 0 14.3269 0 32C0 49.6731 14.3269 64 32 64Z" fill="#4B8AB9"/>
<path fill-rule="evenodd" clip-rule="evenodd" d="M38.7762 10.2351C38.7762 10.2351 44.5174 15.6234 43.5228 19.183C44.7556 20.5366 45.6163 22.1954 46.0134 23.983L42.3148 24.8391C42.2473 24.5152 42.1722 24.1776 42.0895 23.8172C36.7103 25.8008 34.147 27.321 30.2569 30.6477C30.5123 30.8629 30.7554 31.0635 30.9883 31.2511L28.7234 33.9911C27.4456 32.8253 26.4818 31.3631 25.908 29.7505C22.3187 28.3939 21.0249 20.885 21.0249 20.885C21.0249 20.885 23.7182 20.4552 26.8372 20.7856C28.6271 17.8481 31.755 15.9937 35.1402 15.7853C36.8033 12.4537 38.7762 10.2351 38.7762 10.2351ZM29.2874 34.4702L31.5702 31.7084C32.7933 32.6434 33.7591 33.2058 34.8826 33.6702C34.8822 33.671 34.882 33.6718 34.8817 33.6726L34.2727 35.5036C34.2082 35.6974 34.3131 35.9068 34.507 35.9713C34.7008 36.0358 34.9102 35.931 34.9747 35.737L35.5734 33.9373C35.7973 34.0185 36.0296 34.0983 36.2729 34.1783C39.0621 33.1608 40.4551 32.3201 42.7176 30.4684C42.7279 30.2354 42.7362 30.0122 42.7421 29.7976L45.785 30.6553C48.17 40.597 45.5701 51.975 44.4859 52.8164C43.3784 53.6758 22.3426 53.9542 19.9974 52.8164C19.1388 52.3998 18.9319 51.0911 19.3422 49.5133C18.2576 48.2331 17.4741 46.8803 17.1641 45.2484C16.7305 42.9656 17.2672 40.3686 18.671 36.9813C18.9316 36.3521 19.653 36.0535 20.2822 36.3143C20.9113 36.5749 21.21 37.2963 20.9493 37.9255C19.6048 41.1699 19.289 43.2194 19.5871 44.7882C19.7284 45.5325 20.0179 46.2219 20.4757 46.9246C21.7388 44.8762 23.8826 42.9074 26.8459 42.1273C27.8762 38.634 28.9086 37.3532 29.9606 36.0482L29.9607 36.048C30.1525 35.8102 30.345 35.5714 30.5381 35.3183C30.0974 35.0641 29.6798 34.7802 29.2874 34.4702ZM45.6227 29.8408C45.6764 29.6937 45.7271 29.5447 45.7745 29.3938C46.2679 27.8279 46.3746 26.2328 46.1483 24.7113L42.4569 25.5657C42.656 26.6662 42.7574 27.6833 42.7542 29.0323L45.6227 29.8408Z" fill="#F3F3F3"/>
</svg>
